<?xml version="1.0" encoding="UTF-8"?>
<svg id="Layer_1" data-name="Layer 1" xmlns="http://www.w3.org/2000/svg" viewBox="0 0 100 100">
  <defs>
    <style>
      .cls-1 {
        fill: #f60;
      }

      .cls-1, .cls-2 {
        stroke: #f60;
        stroke-miterlimit: 10;
      }

      .cls-2 {
        fill: none;
        stroke-width: 6px;
      }
    </style>
  </defs>
  <path class="cls-2" d="M91.72,62.58c1.88,2.84,2.99,6.07,3.27,9.4.13,1.63-1.23,3.02-2.97,3.02H21.04c-8.85,0-16.04-6.76-16.04-15.09v-19.82c0-8.34,7.19-15.09,16.04-15.09h70.99c1.73,0,3.1,1.39,2.97,3.02-.28,3.34-1.4,6.56-3.27,9.4l-2.09,3.17c-1.9,2.89-2.99,6.12-3.25,9.4.26,3.29,1.35,6.52,3.25,9.4l2.09,3.17Z"/>
  <g>
    <path class="cls-1" d="M40.15,51.26c.39.14.81.32,1.23.55-.42-.23-.84-.41-1.23-.55Z"/>
    <path class="cls-1" d="M41.92,42.6c0,2.01-.71,3.67-2.01,4.85,0,0,0,0,0,0,1.29-1.18,2.01-2.84,2.01-4.85,0-4.03-3.04-6.63-7.73-6.63h-12s12,0,12,0c4.7,0,7.73,2.6,7.73,6.63Z"/>
    <path class="cls-1" d="M42.4,53.92c-.69-1.26-1.75-2.26-3.14-2.93,0,0,0,0,0,0,1.39.67,2.45,1.67,3.14,2.93Z"/>
    <path class="cls-1" d="M41.42,46.58c.42-.32.76-.69,1.04-1.09-.28.41-.62.77-1.04,1.09Z"/>
    <path class="cls-1" d="M37.36,50.35c.11.03.23.04.34.07v-1.62c-1.17.46-2.54.7-4.1.7h-11.41s11.41,0,11.41,0c1.55,0,2.93-.24,4.09-.7v1.62c-.11-.03-.23-.04-.34-.07Z"/>
    <path class="cls-1" d="M20.78,65.39v-30.04h13.37c3.31,0,5.73.8,7.39,2.44.38.37.69.78.95,1.23-.26-.44-.57-.86-.95-1.23-1.67-1.64-4.08-2.44-7.4-2.44h-13.37v30.04h14.16c.75,0,1.48-.06,2.17-.16-.69.1-1.42.16-2.17.16h-14.15Z"/>
    <path class="cls-1" d="M70.66,58.22c-.12-.19-.24-.37-.36-.54l-11.6-16.64,11.59,16.64c.12.17.24.36.36.54Z"/>
    <path class="cls-1" d="M73.27,62.54l-.49-.75s-.09-.17-.24-.43c.15.26.23.42.24.43l.5.75Z"/>
    <path class="cls-1" d="M75.68,62.57h0v-27.21h1.12v30.04h-2.23l-15.65-22.37c-.77-1.1-1.71-2.63-2.2-3.45.49.81,1.43,2.35,2.19,3.44l15.65,22.37h2.24v-30.04h-1.13v27.22Z"/>
    <path class="cls-1" d="M39.89,63.53c.51-.27.98-.6,1.39-.97.49-.49.9-1.03,1.22-1.62-.32.59-.72,1.13-1.22,1.62-.42.38-.88.7-1.39.98Z"/>
    <polygon class="cls-1" points="53.5 38.27 53.5 65.39 52.38 65.39 52.38 35.36 54.75 35.36 54.75 35.36 52.37 35.36 52.37 65.4 53.5 65.4 53.5 38.28 55.85 38.28 56.28 38.86 55.85 38.27 53.5 38.27"/>
    <path class="cls-1" d="M42.88,49.22c2.26-1.57,3.46-3.92,3.46-6.86,0-2.66-.94-4.98-2.7-6.7-2.25-2.22-5.35-3.3-9.5-3.3h-16.37v36.04h17.16c4.06,0,7.56-1.27,9.84-3.58,1.96-1.96,2.99-4.51,2.99-7.39,0-3.56-1.8-6.5-4.88-8.21ZM25.19,38.97h9c1.77,0,4.73.47,4.73,3.63,0,3.39-3.33,3.9-5.32,3.9h-8.41v-7.53ZM39.22,60.38c-.94.85-2.45,1.28-4.49,1.28h-9.54v-8.65h9.25c2.19,0,5.86.61,5.86,4.65,0,1.1-.38,2.03-1.08,2.72ZM41.64,62.18h-.01s-.01.03-.03.04c-.1.11-.21.23-.32.34.12-.12.24-.25.35-.38.03-.03.06-.06.08-.09-.02.03-.04.06-.07.09ZM41.96,61.79h0s.04-.05.05-.07c-.01.02-.03.04-.04.07ZM41.84,53.07c.2.27.39.54.55.84-.16-.3-.35-.58-.55-.84Z"/>
    <path class="cls-1" d="M72.68,32.36v23.49l-16.36-23.49h-6.95v36.04h7.13v-23.61l16.51,23.61h6.8v-36.04h-7.13ZM58.47,42.37c-.05-.07-.1-.15-.14-.23h0s-.05-.08-.07-.12c.02.04.05.08.08.12.1.16.2.31.3.46h-.01c-.04-.07-.1-.15-.15-.23Z"/>
  </g>
</svg>