<?xml version="1.0" encoding="UTF-8"?>
<svg id="Layer_1" data-name="Layer 1" xmlns="http://www.w3.org/2000/svg" viewBox="0 0 100 100">
  <defs>
    <style>
      .cls-1 {
        fill: none;
        stroke: #f60;
        stroke-linecap: round;
        stroke-linejoin: round;
        stroke-width: 6px;
      }
    </style>
  </defs>
  <path class="cls-1" d="M58.33,9.96l4.93,8.04,9.17-2.2c7.09-1.7,13.48,4.69,11.78,11.78l-2.2,9.17,8.04,4.93c6.22,3.81,6.22,12.85,0,16.66l-8.04,4.93,2.2,9.17c1.7,7.09-4.69,13.48-11.78,11.78l-9.17-2.2-4.93,8.04c-3.81,6.22-12.85,6.22-16.66,0l-4.93-8.04-9.17,2.2c-7.09,1.7-13.48-4.69-11.78-11.78l2.2-9.17-8.04-4.93c-6.22-3.81-6.22-12.85,0-16.66l8.04-4.93-2.2-9.17c-1.7-7.09,4.69-13.48,11.78-11.78l9.17,2.2,4.93-8.04c3.81-6.22,12.85-6.22,16.66,0Z"/>
  <g>
    <line class="cls-1" x1="64.4" y1="26.77" x2="35.6" y2="71.05"/>
    <g>
      <ellipse class="cls-1" cx="64.23" cy="63.63" rx="6.67" ry="6.9"/>
      <ellipse class="cls-1" cx="35.77" cy="34.19" rx="6.67" ry="6.9"/>
    </g>
  </g>
</svg>