<?xml version="1.0" encoding="UTF-8"?>
<svg id="Layer_1" data-name="Layer 1" xmlns="http://www.w3.org/2000/svg" viewBox="0 0 100 100">
  <defs>
    <style>
      .cls-1 {
        stroke-width: 4px;
      }

      .cls-1, .cls-2 {
        fill: none;
        stroke: #f60;
        stroke-linecap: round;
        stroke-linejoin: round;
      }

      .cls-2 {
        stroke-width: 6px;
      }
    </style>
  </defs>
  <g>
    <g>
      <path class="cls-1" d="M80.94,61.92c0,12.97-10.51,23.48-23.48,23.48s-23.48-10.51-23.48-23.48,10.51-23.48,23.48-23.48,23.48,10.51,23.48,23.48Z"/>
      <path class="cls-1" d="M73.64,61.92c0,8.94-7.25,16.19-16.19,16.19s-16.19-7.25-16.19-16.19,7.25-16.19,16.19-16.19,16.19,7.25,16.19,16.19Z"/>
    </g>
    <polygon class="cls-1" points="27.34 43.8 27.34 85.4 22.4 85.4 22.4 64.6 19.76 64.6 22.23 44.84 27.34 43.8"/>
    <g>
      <line class="cls-1" x1="89.52" y1="86.99" x2="89.52" y2="42.21"/>
      <polyline class="cls-1" points="84.32 43.58 84.32 51.77 95 51.77 95 43.58"/>
    </g>
  </g>
  <g>
    <path class="cls-2" d="M66.32,88.02c-.78,1.92-4.07,4.12-11.44,4.12H8.87s-3.87-1.37-3.87-5.01S9.1,27.68,13.88,26.31c1.95-.56,5.75-.85,9.57-1,5.56-.22,11.16-.14,11.16-.14,0,0,3.93.1,8.47.51,4.98.45,10.68,1.25,12.71,2.68.8.56,1.71,3.29,2.66,7.28"/>
    <path class="cls-2" d="M26.18,31.32c0,1.51-1.22,2.73-2.73,2.73s-2.73-1.22-2.73-2.73,1.22-2.73,2.73-2.73,2.73,1.22,2.73,2.73Z"/>
    <path class="cls-2" d="M45.77,31.32c0,1.51-1.22,2.73-2.73,2.73s-2.73-1.22-2.73-2.73,1.22-2.73,2.73-2.73,2.73,1.22,2.73,2.73Z"/>
    <path class="cls-2" d="M23.45,27.68v-12.98s1.14-6.83,8.65-6.83,10.7,2.73,10.93,7.52c.23,4.78,0,12.3,0,12.3"/>
  </g>
</svg>