<?xml version="1.0" encoding="UTF-8"?>
<svg id="Layer_1" data-name="Layer 1" xmlns="http://www.w3.org/2000/svg" viewBox="0 0 100 100">
  <defs>
    <style>
      .cls-1 {
        stroke-width: 4px;
      }

      .cls-1, .cls-2 {
        fill: none;
        stroke: #f60;
        stroke-linecap: round;
        stroke-linejoin: round;
      }

      .cls-2 {
        stroke-width: 6px;
      }
    </style>
  </defs>
  <ellipse class="cls-1" cx="30.01" cy="31.58" rx="6.72" ry="6.95"/>
  <line class="cls-2" x1="10.61" y1="5" x2="10.61" y2="95"/>
  <line class="cls-2" x1="75.09" y1="5" x2="75.09" y2="95"/>
  <line class="cls-2" x1="95" y1="51.57" x2="51.28" y2="51.57"/>
  <line class="cls-2" x1="18.27" y1="51.57" x2="5" y2="51.57"/>
  <line class="cls-2" x1="5" y1="55.42" x2="17.59" y2="55.42"/>
  <line class="cls-2" x1="55.53" y1="56.36" x2="95" y2="56.36"/>
  <line class="cls-2" x1="41.34" y1="38.53" x2="43.26" y2="34.08"/>
  <line class="cls-2" x1="61.89" y1="34.08" x2="43.26" y2="34.08"/>
  <line class="cls-2" x1="55.95" y1="50.63" x2="61.89" y2="34.08"/>
  <path class="cls-1" d="M33.82,47.39v4.18c0,2.41,2.11,4.36,4.72,4.36h9.87c1.59,0,2.87-1.19,2.87-2.65h0c0-1.46-1.29-2.65-2.87-2.65h-9.17v-5.51c0-3.29-1.8-6.35-4.78-8.14h0"/>
  <path class="cls-1" d="M31.84,58.46h9.99c3.23,0,5.62,2.79,4.87,5.69l-4.51,17.43c-.31,1.19-1.46,2.02-2.78,2.02h0c-1.74,0-3.07-1.42-2.83-3.01l2.59-16.6-15.74-.14-3.24-2.07c-1.23-1.25-1.82-2.93-1.62-4.61l1.82-15.68c.17-1.49,1.05-2.83,2.41-3.66l2.2-1.36"/>
  <line class="cls-1" x1="18.54" y1="87.91" x2="21.06" y2="68.71"/>
  <line class="cls-1" x1="37.26" y1="87.91" x2="34.45" y2="68.71"/>
  <path class="cls-1" d="M30.95,69.59c-.04.12-1.16,6.3-1.84,10.1-.28,1.56.98,2.98,2.69,3.06h0c1.36.06,2.58-.78,2.9-2l2.03-7.62"/>
  <rect class="cls-2" x="17.59" y="64" width="21.18" height="4.36" rx="2.14" ry="2.14"/>
</svg>