<?xml version="1.0" encoding="UTF-8"?>
<svg id="Layer_1" data-name="Layer 1" xmlns="http://www.w3.org/2000/svg" viewBox="0 0 100 100">
  <defs>
    <style>
      .cls-1 {
        fill: none;
        stroke: #f60;
        stroke-linecap: round;
        stroke-miterlimit: 10;
        stroke-width: 6px;
      }
    </style>
  </defs>
  <path class="cls-1" d="M65.84,79.74l-6.11,3.66c-.12.07-.24.15-.35.24-7.18,5.37-17.31,3.92-22.73-3.28L8.33,42.67c-5.42-7.21-4.08-17.47,2.96-23.02.11-.09.22-.18.32-.28l5.12-4.97c1.95-1.89,5.1-1.65,6.74.53l6.1,8.12c1.76,2.34.91,5.74-1.75,6.94h0c-.43.2-.84.46-1.18.78-3.05,2.85-3.51,7.64-.95,11.05l16.41,21.83c2.57,3.41,7.25,4.24,10.78,2.04.4-.25.76-.58,1.06-.95h0c1.86-2.26,5.32-2.19,7.08.16l6.1,8.12c1.64,2.18,1.03,5.31-1.3,6.71Z"/>
  <path class="cls-1" d="M43.91,28.35l.88.18c7.77,1.55,12.82,9.18,11.28,17.04h0"/>
  <path class="cls-1" d="M45.18,18.58l1.5.3c13.21,2.64,21.81,15.62,19.19,28.98h0"/>
  <g>
    <line class="cls-1" x1="84.17" y1="56.39" x2="84.17" y2="78.29"/>
    <line class="cls-1" x1="95" y1="67.34" x2="73.34" y2="67.34"/>
  </g>
</svg>