<?xml version="1.0" encoding="UTF-8"?>
<svg id="Layer_1" data-name="Layer 1" xmlns="http://www.w3.org/2000/svg" viewBox="0 0 100 100">
  <defs>
    <style>
      .cls-1 {
        fill: none;
        stroke: #f60;
        stroke-linecap: round;
        stroke-linejoin: round;
        stroke-width: 6px;
      }

      .cls-2 {
        fill: #f60;
      }
    </style>
  </defs>
  <g>
    <path class="cls-1" d="M22.41,47.32c.2,11.95,18.03,11.95,18.23,0-.2-11.95-18.03-11.95-18.23,0Z"/>
    <path class="cls-1" d="M42.47,95c-.57-7.92-1.64-19.82-1.97-25.19-.02-1.13.38-1.16,1.94-1.58,3.57-.91,8.42-2.14,13.26-3.38l3.24-.97c5.05-1.52,8.18-6.56,7.29-11.77l-2.45-14.23c-.43-2.5-2.59-4.19-4.97-4.19-.54,0-1.09.09-1.63.27-2.28.78-3.68,3.05-3.36,5.44l1.87,14.14c-4.12,1.05-8.2,2.09-11.75,3.01-2.53.62-3.85,1.18-6.47,1.1-4.84.17-11.68-.6-16,.55-3.06.77-5.6,2.84-6.61,5.84-1.26,2.82-3.85,8.64-6.02,13.52-.81,1.82-1.57,3.51-2.17,4.85-.78,1.87-1.7,3.35-1.69,5.34-.01,5.24,6.5,7.33,9.66,3.11l.09-.11c2.4-4.04,5.82-13.27,7.27-16.14.39-.84.43-.4.37.37-.59,5.8-1.13,12.75-1.6,20.01"/>
    <g>
      <path class="cls-1" d="M95,19.32c0,7.91-6.41,14.32-14.31,14.32-3.19,0-6.14-1.05-8.52-2.81-3.51-2.61-5.79-6.79-5.79-11.51,0-7.91,6.41-14.32,14.31-14.32s14.31,6.41,14.31,14.32Z"/>
      <line class="cls-1" x1="75.04" y1="40.2" x2="86.35" y2="40.2"/>
      <line class="cls-1" x1="75.04" y1="46.43" x2="86.35" y2="46.43"/>
      <line class="cls-1" x1="75.04" y1="52.67" x2="86.35" y2="52.67"/>
    </g>
  </g>
  <path class="cls-2" d="M78.4,24.67c0-1.36.94-2.32,2.3-2.32s2.25.96,2.28,2.32c0,1.32-.89,2.3-2.28,2.3s-2.3-.98-2.3-2.3ZM79.21,21.54l-.58-9.87h4.15l-.58,9.87h-2.99Z"/>
</svg>