<?xml version="1.0" encoding="UTF-8"?>
<svg id="Layer_1" data-name="Layer 1" xmlns="http://www.w3.org/2000/svg" viewBox="0 0 100 100">
  <defs>
    <style>
      .cls-1 {
        fill: none;
        stroke: #f60;
        stroke-linecap: round;
        stroke-linejoin: round;
        stroke-width: 6px;
      }
    </style>
  </defs>
  <g>
    <polygon class="cls-1" points="28.41 5 10 17.97 10 95 28.41 95 28.41 5"/>
    <polyline class="cls-1" points="48.47 36.17 48.47 5 28.4 5 28.4 95 44.29 95 48.47 95"/>
    <polyline class="cls-1" points="61.67 43.91 61.67 28.95 48.48 36.17 44.27 38.46 44.27 94.99 48.48 94.99 61.67 94.99 61.67 71.81"/>
    <polyline class="cls-1" points="61.67 43.91 61.67 28.95 74.12 28.95 74.12 42.81"/>
    <polyline class="cls-1" points="74.12 72.97 74.12 94.99 61.67 94.99 61.67 71.81"/>
  </g>
  <g>
    <path class="cls-1" d="M60.09,64.14c-3.45-5.47-1.92-12.78,3.41-16.32,5.33-3.54,12.44-1.97,15.89,3.5,3.45,5.47,1.92,12.78-3.41,16.32-5.33,3.54-12.44,1.97-15.89-3.5Z"/>
    <path class="cls-1" d="M88.94,88.22h0c-1.08.72-2.52.4-3.21-.71l-7.71-12.24,3.9-2.59,7.71,12.24c.7,1.11.39,2.58-.69,3.3Z"/>
    <line class="cls-1" x1="75.97" y1="67.63" x2="79.8" y2="73.71"/>
  </g>
</svg>