<?xml version="1.0" encoding="UTF-8"?>
<svg id="Layer_1" data-name="Layer 1" xmlns="http://www.w3.org/2000/svg" viewBox="0 0 100 100">
  <defs>
    <style>
      .cls-1 {
        fill: none;
        stroke: #f60;
        stroke-linecap: round;
        stroke-linejoin: round;
        stroke-width: 6px;
      }

      .cls-2 {
        fill: #f60;
      }
    </style>
  </defs>
  <path class="cls-1" d="M30.43,66.85c0-2.18,1.88-3.95,4.2-3.95s4.2,1.77,4.2,3.95-1.88,3.95-4.2,3.95-4.2-1.76-4.2-3.95M26.61,54.28l.51-19.27,20.5.48v18.78h-21.01ZM72.87,35.02l.52,19.27h-21.01v-18.78l20.5-.48ZM65.37,70.8c-2.32,0-4.2-1.76-4.2-3.95s1.88-3.95,4.2-3.95,4.2,1.77,4.2,3.95-1.88,3.95-4.2,3.95M66.85,78.08h5.37c3.42,0,6.2-2.61,6.2-5.83l-1.03-48.09c0-3.22-2.78-5.83-6.2-5.83h-18.49l-.67-.39,8.99-5.03-3.48-5.17h1.3l2.07-2.75h-21.79l2.07,2.75h1.64l-3.42,5.08,9.04,5.12-.67.39h-18.94c-3.42,0-6.2,2.61-6.2,5.83l-1.03,48.09c0,3.22,2.78,5.83,6.2,5.83h5.37l-13.15,16.92h7.73l2.5-3.21h39.54l2.5,3.21h7.73l-13.15-16.92Z"/>
  <path class="cls-2" d="M33.16,22.59h33.67c1.62,0,2.93,1.04,2.93,2.33s-1.31,2.33-2.93,2.33h-33.67c-1.62,0-2.93-1.04-2.93-2.33s1.31-2.33,2.93-2.33"/>
  <polygon class="cls-2" points="32 90.29 34.86 86.61 65.14 86.61 68 90.29 32 90.29"/>
  <polygon class="cls-2" points="59.12 78.08 61.86 81.61 38.14 81.61 40.88 78.08 59.12 78.08"/>
  <polygon class="cls-2" points="64.75 85.32 35.25 85.32 37.62 82.27 62.37 82.27 64.75 85.32"/>
</svg>