<?xml version="1.0" encoding="UTF-8"?>
<svg id="Layer_1" data-name="Layer 1" xmlns="http://www.w3.org/2000/svg" viewBox="0 0 100 100">
  <defs>
    <style>
      .cls-1 {
        fill: none;
        stroke: #231f20;
        stroke-linecap: round;
        stroke-linejoin: round;
        stroke-width: 2.5px;
      }
    </style>
  </defs>
  <polyline class="cls-1" points="74.3 55.44 74.3 92.5 12.5 92.5 12.5 7.5 74.3 7.5 74.3 33.17"/>
  <line class="cls-1" x1="24.39" y1="25.93" x2="46.48" y2="25.93"/>
  <line class="cls-1" x1="24.39" y1="42.77" x2="63.36" y2="42.77"/>
  <polyline class="cls-1" points="23.42 60.39 62.02 60.39 62.02 76.7 36.65 76.7"/>
  <g>
    <path class="cls-1" d="M62.02,62.23l12.28-18.67,1.85-2.81,5.56-8.45c1.02-1.56,3.01-1.91,4.44-.8.86.66,1.34,1.73,1.34,2.81,0,.69-.19,1.39-.61,2.01l-5.53,8.42-10.66,16.15"/>
    <line class="cls-1" x1="79.05" y1="36.41" x2="83.84" y2="40.11"/>
  </g>
</svg>