<?xml version="1.0" encoding="UTF-8"?>
<svg id="Layer_1" data-name="Layer 1" xmlns="http://www.w3.org/2000/svg" viewBox="0 0 100 100">
  <defs>
    <style>
      .cls-1 {
        fill: none;
        stroke: #231f20;
        stroke-linecap: round;
        stroke-linejoin: round;
        stroke-width: 2.5px;
      }
    </style>
  </defs>
  <g>
    <rect class="cls-1" x="16.91" y="15" width="66.19" height="37.77"/>
    <g>
      <line class="cls-1" x1="16.97" y1="52.77" x2="5" y2="72.98"/>
      <path class="cls-1" d="M6.66,80.81l7.65-13.49c.11-.2.25-.38.41-.55l7.41-7.85c.42-.44.97-.76,1.59-.91l5.66-1.4c.68-.17,1.4-.13,2.05.11l3.3,1.2"/>
      <path class="cls-1" d="M23.7,64.29l4.08-3.6c.55-.49,1.25-.82,2-.97l5.35-1.05c.72-.14,1.46.09,1.93.59l2.69,2.89"/>
      <path class="cls-1" d="M27.29,68.45l8.09-5.9c.05-.04.12-.05.19-.04l8.16,1.54c.62.12.89.76.52,1.22h0c-.73.9-1.9,1.42-3.13,1.4l-2.62-.03c-.87,0-1.72.21-2.44.64l-5.75,3.37s-.04.03-.06.05l-1.95,2.52c-.49.64-.17,1.52.65,1.77l2.7.83c.49.15,1.04.02,1.39-.32l1.27-1.25c.7-.69,1.81-.93,2.79-.59h0c.68.23.93.97.51,1.5l-3.63,4.56c-.93,1.17-2.49,1.81-4.09,1.7l-6.27-.46c-1.1-.08-2.16.4-2.74,1.24l-1.94,2.82"/>
      <g>
        <line class="cls-1" x1="83.03" y1="52.77" x2="95" y2="72.98"/>
        <path class="cls-1" d="M93.34,80.81l-7.65-13.49c-.11-.2-.25-.38-.41-.55l-7.41-7.85c-.42-.44-.97-.76-1.59-.91l-5.66-1.4c-.68-.17-1.4-.13-2.05.11l-3.3,1.2"/>
        <path class="cls-1" d="M76.3,64.29l-4.08-3.6c-.55-.49-1.25-.82-2-.97l-5.35-1.05c-.72-.14-1.46.09-1.93.59l-2.69,2.89"/>
        <path class="cls-1" d="M72.71,68.45l-8.09-5.9c-.05-.04-.12-.05-.19-.04l-8.16,1.54c-.62.12-.89.76-.52,1.22h0c.73.9,1.9,1.42,3.13,1.4l2.62-.03c.87,0,1.72.21,2.44.64l5.75,3.37s.04.03.06.05l1.95,2.52c.49.64.17,1.52-.65,1.77l-2.7.83c-.49.15-1.04.02-1.39-.32l-1.27-1.25c-.7-.69-1.81-.93-2.79-.59h0c-.68.23-.93.97-.51,1.5l3.63,4.56c.93,1.17,2.49,1.81,4.09,1.7l6.27-.46c1.1-.08,2.16.4,2.74,1.24l1.94,2.82"/>
      </g>
    </g>
  </g>
  <line class="cls-1" x1="43.81" y1="71.54" x2="56.06" y2="71.54"/>
  <line class="cls-1" x1="46.97" y1="19.51" x2="52.89" y2="19.51"/>
</svg>