<?xml version="1.0" encoding="UTF-8"?>
<svg id="Layer_1" data-name="Layer 1" xmlns="http://www.w3.org/2000/svg" viewBox="0 0 100 100">
  <defs>
    <style>
      .cls-1 {
        fill: none;
        stroke: #231f20;
        stroke-miterlimit: 10;
        stroke-width: 2.5px;
      }

      .cls-2 {
        fill: #231f20;
      }
    </style>
  </defs>
  <path class="cls-1" d="M91.72,62.58c1.88,2.84,2.99,6.07,3.27,9.4.13,1.63-1.23,3.02-2.97,3.02H21.04c-8.85,0-16.04-6.76-16.04-15.09v-19.82c0-8.34,7.19-15.09,16.04-15.09h70.99c1.73,0,3.1,1.39,2.97,3.02-.28,3.34-1.4,6.56-3.27,9.4l-2.09,3.17c-1.9,2.89-2.99,6.12-3.25,9.4.26,3.29,1.35,6.52,3.25,9.4l2.09,3.17Z"/>
  <g>
    <path class="cls-2" d="M19.28,33.86h14.87c3.68,0,6.48.92,8.44,2.87,1.42,1.39,2.26,3.28,2.26,5.64,0,3.65-2.16,5.91-5.64,6.93v.14c3.98.88,7.07,3.56,7.07,7.99,0,2.54-.93,4.71-2.55,6.33-1.96,1.99-5,3.14-8.78,3.14h-15.65v-33.04ZM33.61,48c4.27,0,6.82-1.99,6.82-5.41,0-3.19-2.31-5.13-6.23-5.13h-10.5v10.53h9.91ZM34.73,63.15c2.5,0,4.32-.6,5.5-1.66.98-.97,1.57-2.26,1.57-3.84,0-4.11-3.09-6.15-7.36-6.15h-10.75v11.64h11.04Z"/>
    <path class="cls-2" d="M50.88,33.86h4.66l16,22.96c1.18,1.71,2.55,4.25,2.55,4.25h.1v-27.21h4.12v33.04h-4.52l-16.1-23.01c-1.13-1.62-2.6-4.11-2.6-4.11h-.1v27.12h-4.12v-33.04Z"/>
  </g>
</svg>