<?xml version="1.0" encoding="UTF-8"?>
<svg id="Layer_1" data-name="Layer 1" xmlns="http://www.w3.org/2000/svg" viewBox="0 0 100 100">
  <defs>
    <style>
      .cls-1 {
        fill: #231f20;
      }

      .cls-2 {
        fill: none;
        stroke: #231f20;
        stroke-linecap: round;
        stroke-linejoin: round;
        stroke-width: 2.5px;
      }
    </style>
  </defs>
  <g>
    <g>
      <path class="cls-2" d="M64.39,21.96H10.98c-3.3,0-5.98-2.68-5.98-5.98,0-1.65.67-3.15,1.75-4.23,1.08-1.08,2.58-1.75,4.23-1.75h53.41c-1.65,0-3.15.67-4.23,1.75-1.08,1.08-1.75,2.58-1.75,4.23,0,3.3,2.68,5.98,5.98,5.98Z"/>
      <path class="cls-2" d="M64.39,21.96c-3.3,0-5.98-2.68-5.98-5.98,0-1.65.67-3.15,1.75-4.23,1.08-1.08,2.58-1.75,4.23-1.75h1.92c6.57,0,11.89,5.33,11.89,11.89v.07"/>
      <path class="cls-2" d="M15.71,21.96v58.72c0,5.15,4.25,9.32,9.49,9.32h53.01"/>
      <line class="cls-2" x1="78.2" y1="40.63" x2="78.2" y2="21.96"/>
      <line class="cls-2" x1="78.2" y1="79.88" x2="78.2" y2="74.23"/>
      <path class="cls-2" d="M87.43,84.94c0,1.4-.57,2.66-1.48,3.58s-2.18,1.48-3.57,1.48H29.4c1.4,0,2.66-.57,3.58-1.48s1.48-2.18,1.48-3.58c0-2.8-2.26-5.06-5.06-5.06h52.98c2.79,0,5.06,2.26,5.06,5.06Z"/>
    </g>
    <rect class="cls-2" x="21.97" y="42.09" width="28.47" height="7.54"/>
    <line class="cls-2" x1="21.97" y1="55.03" x2="33.22" y2="55.03"/>
    <line class="cls-2" x1="22.54" y1="61.01" x2="50.44" y2="61.01"/>
    <line class="cls-2" x1="22.54" y1="68.47" x2="51.01" y2="68.47"/>
    <circle class="cls-2" cx="78.2" cy="57.43" r="16.8"/>
  </g>
  <path class="cls-1" d="M77.55,65.91c-4.09-.25-6.4-2.26-6.5-5.65h3.42c.23,1.76,1.16,2.66,3.09,2.86v-4.77s-.1,0-.13-.03c-3.06-.7-5.9-1.53-5.9-5.12,0-3.24,2.51-4.97,6.03-5.15v-1.48h1.51v1.51c3.37.3,5.5,2.16,5.73,5.32h-3.34c-.18-1.41-1.1-2.24-2.39-2.49v4.34c.05.03.1.03.15.03,3.24.65,6,1.66,6,5.22,0,3.37-2.59,5.25-6.15,5.43v2.13h-1.51v-2.16ZM77.55,54.94v-4.09c-1.58.15-2.54.88-2.54,1.98s.8,1.66,2.54,2.11ZM79.06,58.73v4.4c1.46-.15,2.64-.8,2.64-2.18,0-1.28-.98-1.78-2.64-2.21Z"/>
</svg>