<?xml version="1.0" encoding="UTF-8"?>
<svg id="Layer_1" data-name="Layer 1" xmlns="http://www.w3.org/2000/svg" viewBox="0 0 100 100">
  <defs>
    <style>
      .cls-1 {
        fill: none;
        stroke: #231f20;
        stroke-linecap: round;
        stroke-linejoin: round;
        stroke-width: 2.5px;
      }
    </style>
  </defs>
  <g id="oskW6J">
    <path class="cls-1" d="M6.39,52.15c-1-.17-1.41-1.26-1.39-2.16.02-.76,1.21-3.87,1.67-4.57,1.69-2.59,4.73-1.79,7.4-1.94,2.17-5.28,3.83-11.07,6.27-16.22,1.18-2.51,2.04-3.65,4.56-5.02,4.88-2.66,10.53-3.24,16.02-3.63-.06-3.58-.08-5.69,4.11-5.98,2.24-.15,10.17-.28,11.94.32,2.41.82,2.11,3.62,2.12,5.66,6,.5,16.85,1.29,19.89,7.27l6.82,17.43c2.68.6,5.72-.67,7.54,2.12.45.7,1.65,3.81,1.67,4.57s-.47,2.16-1.39,2.16h-4.33c.59,1.76,1.15,3.36,1.28,5.24.58,8.7-.46,18,0,26.77-.09,1.66-1.16,2.93-2.88,3.16-1.9.26-11.04.27-12.72-.12-.92-.22-2.36-1.24-2.36-2.23v-6.48H27.4v6.48c0,.98-1.44,2.01-2.36,2.23-1.68.39-10.82.38-12.72.12-1.72-.23-2.79-1.51-2.88-3.16.46-8.77-.58-18.06,0-26.77.12-1.88.69-3.48,1.28-5.24-1.31-.16-3.09.21-4.33,0ZM79.13,44.72c.37-.43-2.16-7.59-2.57-8.68-.78-2.07-1.89-5.14-2.93-7.02s-4.22-2.53-6.27-2.95c-6.3-1.28-12.99-1.15-19.36-1.08-5.06.05-16.18-.06-20.33,2.62-1.44.93-2.85,4.54-3.54,6.23-1.44,3.5-2.51,7.15-3.49,10.8,4.04,1.08,8.22,1.86,12.38,2.34,9.45,1.09,20.06,1.21,29.54.43,5.58-.46,11.15-1.34,16.56-2.69ZM14.59,56.74c-.85.93-.83,4.34-.68,5.57.16,1.31.88,1.99,2.09,2.49,2.51,1.04,11.63,1.27,14.26.53,1.55-.44,2.14-1.61,1.73-3.15s-5.52-3.52-7.14-4.16c-2.33-.92-8.24-3.52-10.28-1.28ZM85.41,56.74c-2.05-2.23-7.94.35-10.28,1.28-1.61.64-6.71,2.55-7.14,4.16s.18,2.71,1.73,3.15c2.63.74,11.75.51,14.26-.53,1.21-.5,1.93-1.18,2.09-2.49.15-1.2.14-4.69-.68-5.57Z"/>
  </g>
</svg>