<?xml version="1.0" encoding="UTF-8"?>
<svg id="Layer_1" data-name="Layer 1" xmlns="http://www.w3.org/2000/svg" viewBox="0 0 100 100">
  <defs>
    <style>
      .cls-1 {
        fill: none;
        stroke: #231f20;
        stroke-linecap: round;
        stroke-linejoin: round;
        stroke-width: 6px;
      }
    </style>
  </defs>
  <g>
    <g>
      <g>
        <ellipse class="cls-1" cx="37.18" cy="10.54" rx="5.77" ry="5.54"/>
        <path class="cls-1" d="M39.72,15.88c3.78,1.29,6.56,5.5,6.56,10.49v2.94c0,1.71-1.58,3.1-3.52,3.1h-11.14c-1.95,0-3.52-1.39-3.52-3.1v-2.94c0-5,2.77-9.21,6.56-10.49"/>
      </g>
      <g>
        <ellipse class="cls-1" cx="63.02" cy="10.54" rx="5.77" ry="5.54"/>
        <path class="cls-1" d="M65.48,15.92c3.72,1.34,6.43,5.51,6.43,10.45v2.94c0,1.71-1.58,3.1-3.52,3.1h-11.14c-1.95,0-3.52-1.39-3.52-3.1v-2.94c0-5.05,2.84-9.3,6.68-10.54"/>
      </g>
    </g>
    <g>
      <g>
        <ellipse class="cls-1" cx="69.41" cy="60.31" rx="8.57" ry="8.42"/>
        <path class="cls-1" d="M74.09,67.66c5.63,2.42,9.68,9.23,9.68,17.25v6.81c0,1.81-1.58,3.28-3.52,3.28h-21.68c-1.95,0-3.52-1.47-3.52-3.28v-6.81c0-8.02,4.05-14.83,9.68-17.25"/>
      </g>
      <g>
        <ellipse class="cls-1" cx="30.59" cy="60.31" rx="8.57" ry="8.42"/>
        <path class="cls-1" d="M35.27,67.66c5.63,2.42,9.68,9.23,9.68,17.25v6.81c0,1.81-1.58,3.28-3.52,3.28h-21.68c-1.95,0-3.52-1.47-3.52-3.28v-6.81c0-8.02,4.05-14.83,9.68-17.25"/>
      </g>
    </g>
  </g>
  <path class="cls-1" d="M20.29,72.18h-11.76c-2.64,0-4.35-2.61-3.13-4.79l15.28-27.33c.61-1.08,1.81-1.76,3.13-1.76h52.38c1.31,0,2.52.68,3.13,1.76l15.28,27.33c1.22,2.18-.48,4.79-3.13,4.79h-11.76"/>
  <line class="cls-1" x1="59.12" y1="72.18" x2="40.89" y2="72.18"/>
</svg>