<?xml version="1.0" encoding="UTF-8"?>
<svg id="Layer_1" data-name="Layer 1" xmlns="http://www.w3.org/2000/svg" viewBox="0 0 100 100">
  <defs>
    <style>
      .cls-1 {
        fill: none;
        stroke: #231f20;
        stroke-linecap: round;
        stroke-linejoin: round;
        stroke-width: 4px;
      }
    </style>
  </defs>
  <line class="cls-1" x1="66.2" y1="95" x2="56.2" y2="95"/>
  <path class="cls-1" d="M22.87,5h43.33c2.57,0,4.65,2.11,4.65,4.7v34.64"/>
  <path class="cls-1" d="M5,23.05v67.24c0,2.6,2.08,4.7,4.66,4.7h41.51"/>
  <g>
    <path class="cls-1" d="M29.48,62.22l2.12,1.47,2.55.47c1.96.36,3.5,1.9,3.86,3.87l.47,2.61,1.51,2.21c1.12,1.64,1.12,3.79,0,5.42l-1.51,2.21-.47,2.61c-.36,1.97-1.89,3.51-3.86,3.87l-2.55.47-2.12,1.47c-1.65,1.15-3.85,1.15-5.5,0l-2.12-1.47-2.55-.47c-1.96-.36-3.5-1.9-3.86-3.87l-.47-2.61-1.51-2.21c-1.12-1.64-1.12-3.79,0-5.42l1.51-2.21.47-2.61c.36-1.97,1.89-3.51,3.86-3.87l2.55-.47,2.12-1.47c1.65-1.15,3.85-1.15,5.5,0Z"/>
    <ellipse class="cls-1" cx="26.73" cy="75.57" rx="7.79" ry="7.87"/>
  </g>
  <path class="cls-1" d="M60.51,83.44h30.19c2.38,0,4.31,1.93,4.31,4.31v7.25h-38.8v-7.25c0-2.38,1.93-4.31,4.31-4.31Z"/>
  <path class="cls-1" d="M66.04,76.85h18.23c1.39,0,2.52,1.13,2.52,2.52v4.07h-23.26v-4.07c0-1.39,1.13-2.52,2.52-2.52Z"/>
  <path class="cls-1" d="M79.24,73.2l1.76-10.76c.23-1.41.69-2.78,1.36-4.07h0c.54-1.03.83-2.12.91-3.2.28-3.96-3.21-7.29-7.49-7.38h0s0,0,0,0c-4.28.09-7.78,3.42-7.49,7.38.08,1.09.38,2.18.91,3.2h0c.67,1.29,1.13,2.66,1.36,4.07l1.76,10.76"/>
  <path class="cls-1" d="M22.87,5v12.67c0,2.97-2.39,5.39-5.33,5.39H5"/>
  <line class="cls-1" x1="5" y1="23.05" x2="22.87" y2="5"/>
  <line class="cls-1" x1="34.51" y1="14.03" x2="62.36" y2="14.03"/>
  <line class="cls-1" x1="34.51" y1="21.79" x2="62.36" y2="21.79"/>
  <line class="cls-1" x1="13.93" y1="29.55" x2="62.36" y2="29.55"/>
  <line class="cls-1" x1="13.93" y1="37.69" x2="62.36" y2="37.69"/>
  <line class="cls-1" x1="13.93" y1="46.35" x2="62.36" y2="46.35"/>
  <line class="cls-1" x1="13.93" y1="53.85" x2="62.36" y2="53.85"/>
  <line class="cls-1" x1="70.85" y1="44.35" x2="70.85" y2="44.35"/>
</svg>