<?xml version="1.0" encoding="UTF-8"?>
<svg id="Layer_1" data-name="Layer 1" xmlns="http://www.w3.org/2000/svg" viewBox="0 0 100 100">
  <defs>
    <style>
      .cls-1 {
        fill: none;
        stroke: #231f20;
        stroke-linecap: round;
        stroke-linejoin: round;
        stroke-width: 2.5px;
      }
    </style>
  </defs>
  <path class="cls-1" d="M43.06,29.39L6.34,52.94l-1.34,9.85,29.11-7.34h9.7v22.53l-11.29,11.27v5.76l17.48-7.18,17.48,7.18v-5.76s-11.29-11.27-11.29-11.27v-22.53h9.7s29.11,7.34,29.11,7.34l-1.34-9.85-36.72-23.56.08.05c.36-.87.56-1.84.56-2.83v-14.05c0-2.09-.85-3.97-2.22-5.35s-3.27-2.21-5.36-2.21c-4.2,0-7.59,3.39-7.59,7.56v14.05c0,1.01.2,1.97.56,2.85"/>
</svg>