<?xml version="1.0" encoding="UTF-8"?>
<svg id="Layer_1" data-name="Layer 1" xmlns="http://www.w3.org/2000/svg" viewBox="0 0 100 100">
  <defs>
    <style>
      .cls-1 {
        fill: none;
        stroke: #231f20;
        stroke-linecap: round;
        stroke-linejoin: round;
        stroke-width: 4px;
      }
    </style>
  </defs>
  <g>
    <polyline class="cls-1" points="19.59 77.5 43.89 26.72 52.34 26.72"/>
    <polyline class="cls-1" points="42.03 76.73 47.29 33.06 49.7 33.06"/>
    <path class="cls-1" d="M16.99,74.23h-4.56c-1.09,0-2.05-.78-2.32-1.89l-5.08-20.7c-.09-.35-.02-.72.18-1.02l7.05-10.2c.58-.84,1.82-.58,2.06.42l3.69,15.65c.27,1.12,1.22,1.91,2.33,1.91h5.6"/>
    <line class="cls-1" x1="19.59" y1="68.96" x2="9.28" y2="68.96"/>
    <line class="cls-1" x1="26.99" y1="52.6" x2="17.18" y2="52.6"/>
    <line class="cls-1" x1="32.08" y1="42.76" x2="22.08" y2="42.76"/>
    <path class="cls-1" d="M35.98,34.1h-5.16c-1.15,0-2.14-.86-2.35-2.05l-1.54-8.56c-.19-1.07-1.51-1.35-2.09-.45l-4.96,7.71c-.18.28-.24.62-.17.95l2.87,13.43c.25,1.15,1.22,1.97,2.34,1.97h4.76"/>
    <line class="cls-1" x1="38.66" y1="29.07" x2="27.93" y2="29.07"/>
  </g>
  <g>
    <polyline class="cls-1" points="80.41 77.5 56.11 26.72 47.66 26.72"/>
    <polyline class="cls-1" points="57.97 76.73 52.71 33.06 49.7 33.06"/>
    <path class="cls-1" d="M83.01,74.23h4.56c1.09,0,2.05-.78,2.32-1.89l5.08-20.7c.09-.35.02-.72-.18-1.02l-7.05-10.2c-.58-.84-1.82-.58-2.06.42l-3.69,15.65c-.27,1.12-1.22,1.91-2.33,1.91h-5.6"/>
    <line class="cls-1" x1="80.41" y1="68.96" x2="90.72" y2="68.96"/>
    <line class="cls-1" x1="73.01" y1="52.6" x2="82.82" y2="52.6"/>
    <line class="cls-1" x1="67.92" y1="42.76" x2="77.92" y2="42.76"/>
    <path class="cls-1" d="M64.02,34.1h5.16c1.15,0,2.14-.86,2.35-2.05l1.54-8.56c.19-1.07,1.51-1.35,2.09-.45l4.96,7.71c.18.28.24.62.17.95l-2.87,13.43c-.25,1.15-1.22,1.97-2.34,1.97h-4.76"/>
    <line class="cls-1" x1="61.34" y1="29.07" x2="72.07" y2="29.07"/>
  </g>
</svg>