<?xml version="1.0" encoding="UTF-8"?>
<svg id="Layer_1" data-name="Layer 1" xmlns="http://www.w3.org/2000/svg" viewBox="0 0 100 100">
  <defs>
    <style>
      .cls-1 {
        fill: none;
        stroke: #f60;
        stroke-linecap: round;
        stroke-linejoin: round;
        stroke-width: 6px;
      }
    </style>
  </defs>
  <g>
    <rect class="cls-1" x="20.1" y="5" width="10.73" height="19.84" rx="5.36" ry="5.36"/>
    <rect class="cls-1" x="69.18" y="5" width="10.73" height="19.84" rx="5.36" ry="5.36"/>
  </g>
  <g>
    <rect class="cls-1" x="21.96" y="50.67" width="11.4" height="10.91" rx=".74" ry=".74"/>
    <rect class="cls-1" x="44.3" y="50.67" width="11.4" height="10.91" rx=".74" ry=".74"/>
    <rect class="cls-1" x="66.64" y="50.67" width="11.4" height="10.91" rx=".74" ry=".74"/>
  </g>
  <g>
    <rect class="cls-1" x="21.96" y="71.93" width="11.4" height="10.91" rx=".74" ry=".74"/>
    <rect class="cls-1" x="44.3" y="71.93" width="11.4" height="10.91" rx=".74" ry=".74"/>
    <polyline class="cls-1" points="65.64 77.89 70.17 81.93 79.53 72.37"/>
  </g>
  <line class="cls-1" x1="69.18" y1="16.24" x2="30.82" y2="16.24"/>
  <path class="cls-1" d="M79.91,16.24h7.58c4.15,0,7.51,3.37,7.51,7.52v63.73c0,4.15-3.36,7.51-7.51,7.51H12.52c-4.15,0-7.52-3.36-7.52-7.51V23.76c0-4.15,3.37-7.52,7.52-7.52h7.58"/>
  <line class="cls-1" x1="5" y1="38.52" x2="95" y2="38.52"/>
</svg>