<?xml version="1.0" encoding="UTF-8"?>
<svg id="Layer_1" data-name="Layer 1" xmlns="http://www.w3.org/2000/svg" viewBox="0 0 100 100">
  <defs>
    <style>
      .cls-1 {
        stroke-width: 6px;
      }

      .cls-1, .cls-2, .cls-3 {
        fill: none;
        stroke: #231f20;
        stroke-linecap: round;
        stroke-miterlimit: 10;
      }

      .cls-2 {
        stroke-width: 3px;
      }

      .cls-3 {
        stroke-width: 4px;
      }

      .cls-4 {
        fill: #231f20;
      }
    </style>
  </defs>
  <g>
    <path class="cls-1" d="M40.91,68.29l-3.61,2.16c-.07.04-.14.09-.21.14-4.24,3.17-10.22,2.32-13.41-1.94L6.97,46.41c-3.2-4.25-2.41-10.31,1.74-13.59.06-.05.13-.11.19-.16l3.02-2.93c1.15-1.12,3.01-.97,3.98.31l3.6,4.79c1.04,1.38.54,3.39-1.03,4.1h0c-.26.12-.49.27-.7.46-1.8,1.68-2.07,4.51-.56,6.52l9.69,12.89c1.51,2.01,4.28,2.5,6.37,1.2.24-.15.45-.34.63-.56h0c1.1-1.34,3.14-1.29,4.18.09l3.6,4.79c.97,1.29.61,3.14-.77,3.96Z"/>
    <path class="cls-3" d="M27.97,37.96l.52.1c4.59.92,7.57,5.42,6.66,10.06h0"/>
    <path class="cls-3" d="M28.71,32.19l.88.18c7.8,1.56,12.87,9.22,11.33,17.1h0"/>
    <polyline class="cls-3" points="59.22 55.82 95 50.56 91.69 27.5 48.88 33.79 51.2 49.9"/>
    <g>
      <line class="cls-3" x1="51.73" y1="54.51" x2="51.73" y2="67.43"/>
      <line class="cls-3" x1="58.12" y1="60.97" x2="45.34" y2="60.97"/>
    </g>
  </g>
  <polygon class="cls-4" points="88.09 38.36 82.16 39.23 81.17 32.32 87.09 31.45 88.09 38.36"/>
  <line class="cls-2" x1="55.47" y1="38.59" x2="71.92" y2="36.17"/>
  <line class="cls-2" x1="56" y1="42.22" x2="72.45" y2="39.8"/>
  <line class="cls-2" x1="72.99" y1="45.8" x2="89.44" y2="43.38"/>
  <line class="cls-2" x1="73.46" y1="49.08" x2="89.91" y2="46.67"/>
</svg>