<?xml version="1.0" encoding="UTF-8"?>
<svg id="Layer_1" data-name="Layer 1" xmlns="http://www.w3.org/2000/svg" viewBox="0 0 100 100">
  <defs>
    <style>
      .cls-1 {
        fill: none;
        stroke: #f60;
        stroke-linecap: round;
        stroke-linejoin: round;
        stroke-width: 6px;
      }
    </style>
  </defs>
  <g>
    <path class="cls-1" d="M41.84,69.22c2.09-5.28,6.48-14.96,13.64-18.07l7.73-.53s-10.06,8.06-13.63,18.04h0"/>
    <path class="cls-1" d="M80.8,55.13c-20.39,6.35-16.07,29.86-27.93,34.19l-1.69,5.69h-17.64l2.58-7.71c-7.72-11.42-5.62-24.06-14.87-33.11-1.01-.99-.68-2.72.61-3.25,12.62-5.17,10.66,24.8,27.1,18.26,3.51-1.39,6.53-4.46,9.5-7.77,7.01-7.82,18.27-15.61,23.29-9.42.88,1.07.35,2.72-.96,3.12Z"/>
  </g>
  <line class="cls-1" x1="36.13" y1="87.29" x2="41.59" y2="87.29"/>
  <g>
    <polyline class="cls-1" points="48.13 10.38 45.11 5 54.89 5 51.88 10.38"/>
    <path class="cls-1" d="M84.47,44.22c-.85-18.87-15.95-33.9-34.47-33.9S16.37,25.36,15.53,44.22h68.94Z"/>
    <path class="cls-1" d="M92.39,49.77H7.61c-1.44,0-2.61-1.21-2.61-2.69v-.15c0-1.49,1.17-2.69,2.61-2.69h84.77c1.44,0,2.61,1.21,2.61,2.69v.15c0,1.49-1.17,2.69-2.61,2.69Z"/>
  </g>
</svg>