<?xml version="1.0" encoding="UTF-8"?>
<svg id="Layer_1" data-name="Layer 1" xmlns="http://www.w3.org/2000/svg" viewBox="0 0 100 100">
  <defs>
    <style>
      .cls-1 {
        fill: none;
        stroke: #231f20;
        stroke-linecap: round;
        stroke-linejoin: round;
        stroke-width: 2.5px;
      }
    </style>
  </defs>
  <g>
    <path class="cls-1" d="M50.48,5h1.47c1.15,0,2.08.93,2.08,2.08v42.32h-5.64V7.08c0-1.15.93-2.08,2.08-2.08Z"/>
    <path class="cls-1" d="M47.67,49.4h7.1c1.33,0,2.41,1.08,2.41,2.41v3.31h-11.91v-3.31c0-1.33,1.08-2.41,2.41-2.41Z"/>
    <path class="cls-1" d="M40.2,55.12h22.04c2.4,0,4.35,1.95,4.35,4.35v6.21h-30.74v-6.21c0-2.4,1.95-4.35,4.35-4.35Z"/>
    <line class="cls-1" x1="48.4" y1="14.88" x2="54.04" y2="14.88"/>
  </g>
  <path class="cls-1" d="M54.69,85.19s-16.73,8.17-18.83-19.51"/>
  <path class="cls-1" d="M48.4,75.73s6.39,16.62,17.53,9.19"/>
  <path class="cls-1" d="M59.09,75.73s5.36,16,19.03,8.85c0,0,5.43-2.04,6.13-12.4,0,0-3.67,7.76-10.79,7.12,0,0-7.23.2-6.89-13.62"/>
  <path class="cls-1" d="M32.66,71.3h-9.89c-2.31,0-4.18,1.81-4.18,4.04h0c0,2.23,1.87,4.04,4.18,4.04h4.39c1.99,0,3.6,1.56,3.6,3.47h0c0,1.92-1.61,3.47-3.6,3.47h-7.67c-2.48,0-4.49,1.94-4.49,4.34h0c0,2.4,2.01,4.34,4.49,4.34h61.59c2.16,0,3.91-1.69,3.91-3.78h0c0-2.18-1.64-4.03-3.86-4.37l-.15-.02"/>
</svg>