<?xml version="1.0" encoding="UTF-8"?>
<svg id="Layer_1" data-name="Layer 1" xmlns="http://www.w3.org/2000/svg" viewBox="0 0 100 100">
  <defs>
    <style>
      .cls-1 {
        fill: none;
        stroke: #231f20;
        stroke-linecap: round;
        stroke-linejoin: round;
        stroke-width: 6px;
      }
    </style>
  </defs>
  <path class="cls-1" d="M52.24,43.21h24.47c5.05,0,9.62-2,12.94-5.23,3.31-3.24,5.36-7.69,5.36-12.63,0-9.86-8.19-17.85-18.29-17.85H23.29c-5.05,0-9.62,2-12.94,5.23-3.31,3.23-5.36,7.69-5.36,12.62,0,9.86,8.19,17.86,18.29,17.86h15.85"/>
  <path class="cls-1" d="M39.14,64.19V31.74c0-3.53,2.93-6.39,6.55-6.39h0c3.62,0,6.55,2.86,6.55,6.39v19.85c0,.9.67,1.66,1.57,1.81,3.2.51,8.73,1.37,12.9,2.02,3.2.5,5.54,3.19,5.54,6.35v28.6c0,1.18-.98,2.13-2.19,2.13h-27.39c-1.21,0-2.19-.96-2.19-2.13v-7.69c0-1.64-.76-3.2-2.07-4.23l-12.54-9.91c-2.21-1.75-2.57-4.9-.81-7.08h0c1.78-2.21,5.06-2.58,7.32-.84l5.42,4.2c.54.42,1.33.04,1.33-.63Z"/>
  <polyline class="cls-1" points="60.82 25.35 67.03 31.63 78.89 19.51"/>
  <line class="cls-1" x1="40.49" y1="84.44" x2="72.26" y2="84.44"/>
</svg>