<?xml version="1.0" encoding="UTF-8"?>
<svg id="Layer_1" data-name="Layer 1" xmlns="http://www.w3.org/2000/svg" xmlns:xlink="http://www.w3.org/1999/xlink" viewBox="0 0 100 100">
  <defs>
    <style>
      .cls-1 {
        fill: none;
        stroke: #231f20;
        stroke-linecap: round;
        stroke-miterlimit: 10;
        stroke-width: 6px;
      }

      .cls-2 {
        fill: #231f20;
      }

      .cls-3 {
        clip-path: url(#clippath);
      }
    </style>
    <clipPath id="clippath">
      <path class="cls-1" d="M93.8,34.92l-29.71,10.94.23-3.5c.28-4.26-4.9-6.56-7.87-3.49l-8,8.28-8.56-24.09c-.35-.98.14-2.05,1.09-2.4l42.23-15.55c.95-.35,2,.16,2.35,1.13l9.33,26.28c.35.98-.14,2.05-1.09,2.4Z"/>
    </clipPath>
  </defs>
  <g>
    <g>
      <path class="cls-1" d="M36.48,55.37l4.79-.61,14.92-15.81c1.84-1.95,4.89-1.98,6.77-.07h0c1.78,1.81,1.86,4.72.18,6.63l-14.46,16.5-5.43,9.74c-1.15,2.07-2.77,3.83-4.72,5.14l-4.9,3.29c-.74.5-1.44,1.06-2.08,1.69l-5.7,5.54-14.38-14.33,2.72-4.55c2.61-4.36,4.54-9.11,5.72-14.08l2.51-10.62c.72-3.05,3.08-5.43,6.09-6.13l15.31-3.58,3.52,9.91-4.88,2.13"/>
      <path class="cls-1" d="M41.57,44.01s2.17,5.95-.3,10.75"/>
      <path class="cls-1" d="M55.7,54s.26,1.45,1.22,2.83c1.43,2.05,4.6,1.07,4.66-1.44l.21-8.34"/>
      <path class="cls-1" d="M57.11,57.07l-2.1,8.75c-.37,1.54-2.02,2.37-3.45,1.74h0c-.85-.38-1.43-1.2-1.5-2.14l-.36-4.58"/>
      <polyline class="cls-1" points="11.47 73.05 9.42 70.97 5 75.47 24.18 95 28.79 90.31 25.84 87.39"/>
    </g>
    <g>
      <g class="cls-3">
        <polygon class="cls-1" points="37.07 20.22 48.83 53.35 97.71 35.36 85.95 2.23 37.07 20.22"/>
      </g>
      <path class="cls-1" d="M93.8,34.92l-29.71,10.94.23-3.5c.28-4.26-4.9-6.56-7.87-3.49l-8,8.28-8.56-24.09c-.35-.98.14-2.05,1.09-2.4l42.23-15.55c.95-.35,2,.16,2.35,1.13l9.33,26.28c.35.98-.14,2.05-1.09,2.4Z"/>
    </g>
  </g>
  <g id="cf-logo-white">
    <path class="cls-2" d="M81.37,13.54c-.54-1.49-2.17-2.26-3.64-1.73s-2.23,2.17-1.69,3.66,2.17,2.26,3.64,1.73,2.23-2.17,1.69-3.65ZM78,15.46l.82-.95-1.24-.23-.28-.76,2.82.52-1.85,2.15-.27-.73Z"/>
    <path class="cls-2" d="M81.05,19.52c.07.19.17.35.3.48h.01s.31-.1.31-.1l-.03-.03c-.12-.12-.21-.26-.27-.42-.07-.19-.07-.38,0-.54.07-.17.19-.28.36-.34.17-.06.33-.05.49.04.15.09.27.23.34.42.06.17.09.33.08.49v.04s.31-.11.31-.11v-.02c0-.16-.03-.35-.1-.55-.1-.28-.27-.49-.5-.62-.23-.13-.48-.14-.74-.05s-.45.27-.54.51c-.1.24-.1.51,0,.79Z"/>
    <path class="cls-2" d="M83.49,21.5c.1-.24.1-.49,0-.77s-.27-.48-.49-.59c-.23-.12-.47-.13-.72-.04s-.45.26-.55.5c-.11.24-.11.5,0,.77s.27.48.5.59c.23.11.48.13.74.03s.43-.26.53-.49ZM82.34,21.64c-.15-.07-.26-.2-.33-.37s-.06-.34.01-.5c.07-.15.2-.26.37-.32.16-.06.32-.05.47.02.15.07.26.2.32.38s.06.34,0,.49c-.07.15-.19.26-.35.32-.17.06-.34.06-.49-.01Z"/>
    <path class="cls-2" d="M83.06,23.7l1.08-1.06-.17-.47-1.72.62.12.33,1.27-.46s-.05.04-.07.07l-.99.97.11.3,1.37.1s.04,0,.09,0c0,0,.01,0,.02,0l-1.27.46.12.33,1.72-.62-.17-.47-1.51-.11Z"/>
    <path class="cls-2" d="M85.27,26.28c.07-.16.07-.35,0-.56l-.29-.8-1.72.62.12.34.46-.17.17.46c.08.21.19.36.35.44.16.08.34.09.52.02s.32-.19.39-.35ZM84.48,26.29c-.09-.05-.16-.13-.2-.25l-.16-.43.69-.25.16.43c.04.12.05.23,0,.32-.04.09-.11.16-.21.19s-.2.03-.29-.01Z"/>
    <path class="cls-2" d="M85.98,27.7l-.15-.42-2-.16.13.36.39.02.34.95-.28.27.14.38,1.43-1.4ZM84.68,27.53l.92.06-.67.64-.25-.69Z"/>
    <path class="cls-2" d="M85.97,29.85l-.03-.16c-.03-.16-.03-.26-.01-.33.02-.06.05-.09.09-.11.06-.02.12,0,.18.07.07.08.12.18.17.3.07.18.1.36.09.55v.04s.31-.11.31-.11v-.02c0-.2-.04-.4-.1-.57-.08-.22-.19-.39-.32-.51-.14-.12-.3-.15-.46-.09-.12.04-.21.13-.27.25-.06.12-.07.29-.03.5l.03.18c.02.14.03.24,0,.3-.02.06-.05.1-.11.12-.07.02-.13,0-.2-.06-.07-.07-.13-.17-.18-.3-.08-.22-.11-.44-.07-.66v-.05s-.31.12-.31.12v.02c-.02.22,0,.46.09.7.08.22.19.38.34.49.15.11.31.14.49.07.13-.05.22-.13.27-.25.05-.12.06-.29.02-.5Z"/>
    <path class="cls-2" d="M86.6,32.16c.05-.12.06-.29.02-.5l-.03-.16c-.03-.16-.03-.26-.01-.33.02-.06.05-.09.09-.11.06-.02.12,0,.18.07.07.08.12.18.17.3.07.18.1.36.09.55v.04s.31-.11.31-.11v-.02c0-.2-.04-.4-.1-.57-.08-.22-.19-.39-.32-.51-.14-.12-.3-.15-.46-.09-.12.04-.21.13-.27.25-.06.12-.07.29-.03.5l.03.18c.02.14.03.24,0,.3-.02.06-.05.1-.11.12-.07.02-.13,0-.2-.06-.07-.07-.13-.17-.18-.3-.08-.22-.11-.44-.07-.66v-.05s-.31.12-.31.12v.02c-.02.22,0,.46.09.7.08.22.19.38.34.49.15.11.31.14.49.07.13-.05.22-.13.27-.25Z"/>
    <path class="cls-2" d="M80.09,20.6c.1-.24.1-.49,0-.77s-.27-.48-.49-.59c-.23-.12-.47-.13-.72-.04s-.45.26-.55.5c-.11.24-.11.5,0,.77s.27.48.5.59c.23.12.48.13.74.03s.43-.26.53-.49ZM78.95,20.74c-.15-.07-.26-.2-.33-.37s-.06-.34.01-.5.2-.26.37-.32.32-.05.47.02c.15.07.26.2.32.38s.06.34,0,.49c-.07.15-.19.26-.35.32-.17.06-.34.06-.49-.01Z"/>
    <polygon class="cls-2" points="78.86 21.89 78.99 22.23 79.57 22.02 79.9 22.92 80.18 22.82 79.86 21.91 80.41 21.71 80.76 22.71 81.06 22.6 80.58 21.27 78.86 21.89"/>
    <polygon class="cls-2" points="79.52 23.7 79.64 24.04 80.22 23.83 80.55 24.73 80.84 24.63 80.51 23.72 81.06 23.52 81.42 24.52 81.72 24.41 81.23 23.08 79.52 23.7"/>
    <rect class="cls-2" x="80.19" y="25.21" width="1.82" height=".36" transform="translate(-3.8 29.09) rotate(-19.88)"/>
    <path class="cls-2" d="M82.57,26.68c-.1-.28-.27-.49-.5-.62-.23-.13-.48-.14-.74-.05s-.45.27-.54.51c-.1.24-.1.51,0,.79.07.19.17.35.3.48h.01s.31-.1.31-.1l-.03-.03c-.12-.12-.21-.26-.27-.42-.07-.19-.07-.38,0-.54.07-.17.19-.28.36-.34.17-.06.33-.05.49.04.15.09.27.23.34.42.06.17.09.33.08.49v.04s.31-.11.31-.11v-.02c0-.16-.03-.35-.1-.55Z"/>
    <polygon class="cls-2" points="82.07 28.49 82.43 29.47 82.71 29.37 82.35 28.39 82.78 28.24 83.15 29.26 83.43 29.16 82.94 27.79 81.22 28.41 81.72 29.8 82.01 29.7 81.63 28.65 82.07 28.49"/>
    <path class="cls-2" d="M83.25,30.83l-.03-.16c-.03-.16-.03-.26-.01-.33.02-.06.05-.09.09-.11.06-.02.12,0,.18.07.07.08.12.18.17.3.07.18.1.36.09.55v.04s.31-.11.31-.11v-.02c0-.2-.04-.4-.1-.57-.08-.22-.19-.39-.32-.51-.14-.12-.3-.15-.46-.09-.12.04-.21.13-.27.25-.06.12-.07.29-.03.5l.03.18c.02.14.03.24,0,.3-.02.06-.05.1-.11.12-.07.02-.13,0-.2-.06-.07-.07-.13-.17-.18-.3-.08-.22-.11-.44-.07-.66v-.05s-.31.12-.31.12v.02c-.02.22,0,.46.09.7.08.22.19.38.34.49.15.11.31.14.49.07.13-.05.22-.13.27-.25.05-.12.06-.29.02-.5Z"/>
  </g>
</svg>