<?xml version="1.0" encoding="UTF-8"?>
<svg id="Layer_1" data-name="Layer 1" xmlns="http://www.w3.org/2000/svg" viewBox="0 0 100 100">
  <defs>
    <style>
      .cls-1 {
        fill: none;
        stroke: #231f20;
        stroke-linecap: round;
        stroke-linejoin: round;
        stroke-width: 6px;
      }
    </style>
  </defs>
  <g>
    <g>
      <line class="cls-1" x1="60.9" y1="39.85" x2="59.88" y2="48.66"/>
      <line class="cls-1" x1="69.87" y1="49.92" x2="69.87" y2="41.56"/>
      <line class="cls-1" x1="81.18" y1="41.31" x2="82.79" y2="64.65"/>
      <line class="cls-1" x1="85.83" y1="38.79" x2="87.5" y2="55.91"/>
    </g>
    <g>
      <polygon class="cls-1" points="73.93 50.05 73.93 70.41 62.08 80 62.08 57.66 73.93 50.05"/>
      <polyline class="cls-1" points="34.72 52.74 34.72 61.64 12.5 74.23 12.5 48.74 34.72 39.16"/>
      <line class="cls-1" x1="62.08" y1="57.66" x2="12.5" y2="48.74"/>
      <path class="cls-1" d="M34.72,39.17l4.04-1.75,13.5,2.36-4.95,2.82c-1.47.83-1.16,2.93.49,3.36,5.82,1.49,16.57,4.16,26.13,4.1"/>
    </g>
  </g>
  <path class="cls-1" d="M60.9,39.86c2.44.95,8.49,2.53,20.04,1.47.16-.01,1.09-.32,1.23-.4l4.15-2.4c.37-.2.61-.59.61-1.01v-13.86c0-1.78-1.41-3.23-3.2-3.29l-11.74-.37c-1.54-.05-2.94.89-3.48,2.33h0c-.14.37-.21.76-.22,1.15l-.31,11.81c-.01.47-.31.88-.75,1.05l-6.32,2.39c-.52.2-.52.92,0,1.12Z"/>
</svg>