<?xml version="1.0" encoding="UTF-8"?>
<svg id="Layer_1" data-name="Layer 1" xmlns="http://www.w3.org/2000/svg" viewBox="0 0 100 100">
  <defs>
    <style>
      .cls-1 {
        fill: none;
        stroke: #f60;
        stroke-linecap: round;
        stroke-linejoin: round;
        stroke-width: 6px;
      }
    </style>
  </defs>
  <path class="cls-1" d="M58.65,15.95l.31.59.57-.36c6.66-4.22,15.31.78,14.99,8.65l-.03.67.67-.03c7.88-.33,12.87,8.33,8.65,14.99l-.36.57.59.31c6.98,3.66,6.98,13.65,0,17.31l-.59.31.36.57c4.22,6.66-.78,15.31-8.65,14.99l-.67-.03.03.67c.33,7.88-8.33,12.87-14.99,8.65l-.57-.36-.31.59c-3.66,6.98-13.65,6.98-17.31,0l-.31-.59-.57.36c-6.66,4.22-15.31-.78-14.99-8.65l.03-.67-.67.03c-7.88.33-12.87-8.33-8.65-14.99l.36-.57-.59-.31c-6.98-3.66-6.98-13.65,0-17.31l.59-.31-.36-.57c-4.22-6.66.78-15.31,8.65-14.99l.67.03-.03-.67c-.33-7.88,8.33-12.87,14.99-8.65l.57.36.31-.59c3.66-6.98,13.65-6.98,17.31,0Z"/>
  <g>
    <line class="cls-1" x1="64.4" y1="26.77" x2="35.6" y2="71.05"/>
    <g>
      <ellipse class="cls-1" cx="64.23" cy="63.63" rx="6.67" ry="6.9"/>
      <ellipse class="cls-1" cx="35.77" cy="34.19" rx="6.67" ry="6.9"/>
    </g>
  </g>
</svg>