<?xml version="1.0" encoding="UTF-8"?>
<svg id="Layer_1" data-name="Layer 1" xmlns="http://www.w3.org/2000/svg" viewBox="0 0 100 100">
  <defs>
    <style>
      .cls-1 {
        fill: none;
        stroke: #231f20;
        stroke-linecap: round;
        stroke-linejoin: round;
        stroke-width: 4px;
      }
    </style>
  </defs>
  <g>
    <g>
      <ellipse class="cls-1" cx="46.82" cy="41.71" rx="33.72" ry="5.05"/>
      <path class="cls-1" d="M80.54,41.71h0c0,12.01-4.12,23.67-11.67,33.01l-5.48,6.78-16.27.49h-.6s-16.27-.49-16.27-.49l-5.48-6.78c-7.55-9.35-11.67-21-11.67-33.01h0"/>
    </g>
    <path class="cls-1" d="M80.54,43.42l3.18-.56c2.48-.44,5.03.11,7.1,1.54h0c2.89,1.98,4.47,5.38,4.13,8.86h0c-.35,3.59-2.16,6.87-4.99,9.09l-.5.4c-2.69,2.1-6.02,3.21-9.44,3.12l-5.29-.13"/>
    <path class="cls-1" d="M66.39,77.8c13.24.92,22.25,2.75,22.25,4.87,0,3.04-18.72,5.5-41.82,5.5s-41.82-2.47-41.82-5.5c0-2.12,9.02-3.95,22.26-4.87"/>
    <path class="cls-1" d="M72.74,87.02l-5.85,6.44h0c-4.45,1.02-8.99,1.54-13.56,1.54h-6.25s-.52,0-.52,0h-6.25c-4.56,0-9.11-.52-13.56-1.54h0s-5.85-6.44-5.85-6.44"/>
  </g>
  <path class="cls-1" d="M40.83,14l-2.9,4.46c-1.02,1.57-.84,3.68.43,5.03h0c1.45,1.54,1.45,4.04,0,5.58l-2.77,2.93"/>
  <path class="cls-1" d="M52.9,5l-2.9,4.46c-1.02,1.57-.84,3.68.43,5.03h0c1.45,1.54,1.45,4.04,0,5.58l-2.77,2.93"/>
  <path class="cls-1" d="M64.78,17.8l-2.9,4.46c-1.02,1.57-.84,3.68.43,5.03h0c1.45,1.54,1.45,4.04,0,5.58l-2.77,2.93"/>
</svg>