<?xml version="1.0" encoding="UTF-8"?>
<svg id="Layer_1" data-name="Layer 1" xmlns="http://www.w3.org/2000/svg" viewBox="0 0 100 100">
  <defs>
    <style>
      .cls-1 {
        fill: none;
        stroke: #231f20;
        stroke-linecap: round;
        stroke-linejoin: round;
        stroke-width: 4px;
      }
    </style>
  </defs>
  <ellipse class="cls-1" cx="53.72" cy="14.93" rx="7.24" ry="7.43"/>
  <path class="cls-1" d="M40.1,24.85l-13.16,5c-1.17.44-1.94,1.58-1.94,2.86v15.66c0,1.68,1.33,3.05,2.97,3.05h0c1.64,0,2.97-1.36,2.97-3.05v-9c0-1.3.81-2.46,2-2.88l1.98-.7c1.93-.68,3.94.79,3.94,2.88v11.48c0,.81-.31,1.58-.87,2.16l-6.23,6.39c-.45.47-.75,1.07-.84,1.72l-3.95,28.18c-.26,1.84,1.13,3.48,2.94,3.48h4.12c1.49,0,2.75-1.13,2.94-2.64l3.26-25c.07-.54.28-1.06.62-1.49l1.83-2.36c1.2-1.55,3.5-1.53,4.68.04l2.76,3.69c.4.53.61,1.19.61,1.86v23.28c0,1.68,1.33,3.05,2.97,3.05h2.97c1.64,0,2.97-1.36,2.97-3.05v-21.74c0-3.17-.96-6.25-2.74-8.84l-3.89-5.65c-.35-.51-.55-1.13-.55-1.76v-6.53c0-2.62,3.01-4.02,4.93-2.29l8.13,7.32c.68.61,1.55.95,2.45.95h3.31c2.05,0,3.71-1.71,3.71-3.81h0c0-2.1-1.66-3.81-3.71-3.81h-3.33c-1.04,0-2.02-.44-2.73-1.22l-12.77-14.17c-.81-.9-1.76-1.67-2.81-2.27h0c-2.92-1.68-6.42-1.96-9.56-.77Z"/>
</svg>