<?xml version="1.0" encoding="UTF-8"?>
<svg id="Layer_1" data-name="Layer 1" xmlns="http://www.w3.org/2000/svg" viewBox="0 0 100 100">
  <defs>
    <style>
      .cls-1 {
        fill: none;
        stroke: #231f20;
        stroke-linecap: round;
        stroke-linejoin: round;
        stroke-width: 4px;
      }
    </style>
  </defs>
  <path class="cls-1" d="M94.89,25.77c.13-1.14.15-2.26.03-3.39l-3.21-3.19c-.39.84-.95,1.62-1.64,2.3l-5.44,5.4s-.08.05-.13.03l-8.84-2.06s-.08-.05-.1-.1l-2.09-8.8s0-.1.03-.13l5.43-5.39c.69-.68,1.47-1.23,2.34-1.64l-3.8-3.77c-.42-.04-.84-.04-1.26-.05-4.69-.06-9.35,1.81-12.71,5.6-4.14,4.66-4.95,11.16-2.82,16.81L7.43,80.28c-3.18,3.15-3.12,8.34.12,11.56s8.45,3.26,11.63.11l53.09-52.71c1.91.72,3.91,1.1,5.93,1.13,4.34.03,8.67-1.56,11.96-4.82,2.76-2.74,4.34-6.18,4.73-9.78ZM11.35,88.07c-1.6-1.59-1.64-4.13-.08-5.68s4.14-1.53,5.74.06c1.6,1.59,1.61,4.13.04,5.68s-4.11,1.53-5.71-.06Z"/>
  <g>
    <path class="cls-1" d="M77.45,88.78c-1.6-1.59-1.62-4.15-.06-5.7s4.13-1.51,5.73.08c1.6,1.59,1.62,4.12.06,5.67-1.56,1.55-4.13,1.54-5.72-.04ZM58.49,52.91l28.42,28.22c3.24,3.23,3.31,8.39.14,11.55s-8.39,3.09-11.64-.12l-28.42-28.22M46.74,41.25l-11.5,11.41"/>
    <g>
      <polyline class="cls-1" points="22.74 23.22 42.18 42.51 37.27 47.4 17.84 28.1"/>
      <polygon class="cls-1" points="16.54 29.39 5 17.93 12.5 10.47 24.05 21.94 16.54 29.39"/>
    </g>
  </g>
</svg>