<?xml version="1.0" encoding="UTF-8"?>
<svg id="Layer_1" data-name="Layer 1" xmlns="http://www.w3.org/2000/svg" viewBox="0 0 100 100">
  <defs>
    <style>
      .cls-1 {
        fill: none;
        stroke: #231f20;
        stroke-linecap: round;
        stroke-linejoin: round;
        stroke-width: 2.5px;
      }
    </style>
  </defs>
  <path class="cls-1" d="M49.88,26.24l2.21-4.02c6.7-11.79,18.3-19.45,30.95-11.57,8.46,5.27,12.97,15.03,11.76,25.34-2.12,17.99-21.39,39.65-33.72,51.52-3.59,3.45-7.37,6.68-11.13,9.91-2.77-2.39-5.6-4.73-8.3-7.23C28.31,77.86,7.82,55.51,5.24,36.44c-1.68-12.4,5.43-24.96,17.07-28.26,12.84-3.63,22.46,6.99,27.57,18.05ZM47.61,65.5l-.27-.39-6.54-36.85c-1.02-3.5-4.58-3.05-5.49.33l-6.57,20.92-13.31.38,3.21,5.46h11.89c1.42-.13,2.19-.88,2.68-2.25l4.19-12.83,6.45,36.28c.49,3.04,4.13,3.46,5.3.65l10.3-28.42,4.25,15.37c.55,1.53,1.84,2.42,3.41,1.95.92-.28,2.93-2.6,3.68-3.44,2.09-2.33,3.97-4.88,6.02-7.24l4.51-.11,3.15-5.64c-1.82-.02-3.64.03-5.46,0-.3,0-.58-.15-.85-.15-3.38-.06-3.81.23-6.03,2.76-.56.64-4.13,5.3-4.46,5.3-.18-.12-.19-.29-.26-.47-2.03-5.61-2.84-12.66-5.04-18.13-1.23-3.08-4.25-2.9-5.34.1l-9.43,26.42Z"/>
</svg>