<?xml version="1.0" encoding="UTF-8"?>
<svg id="Layer_1" data-name="Layer 1" xmlns="http://www.w3.org/2000/svg" viewBox="0 0 100 100">
  <defs>
    <style>
      .cls-1 {
        fill: none;
        stroke: #231f20;
        stroke-linecap: round;
        stroke-linejoin: round;
        stroke-width: 4px;
      }
    </style>
  </defs>
  <g id="xGj3ni">
    <path class="cls-1" d="M95,38.51v2.97l-.55,3.71c-.69,3.55-2.39,8.72-5.92,10.23-.28.12-1.23.46-1.48.46h-5.67l13.62,17.56v.09h-14.99s-.35-.09-.35-.09l-22.1-28.46h23.33s.42-.15.52-.19c2.27-.94,2.44-6.26.84-7.86-.15-.15-.83-.6-1-.6h-29.22v25.8c-.59,9.82-14.6,12.53-22.19,12.83-6.78.27-19.32-1.59-23.41-7.81-.57-.86-1.42-2.83-1.42-3.85v-18.32h12.3v15.71c0,.76,1.48,1.66,2.09,1.91,4.05,1.71,15.16,1.55,18.95-.81.58-.36,1.64-1.35,1.64-2.1V25h46.27c.38,0,1.43.32,1.82.47,4.58,1.73,6.47,8.38,6.84,12.89l.08.14Z"/>
  </g>
</svg>