<?xml version="1.0" encoding="UTF-8"?>
<svg id="Layer_1" data-name="Layer 1" xmlns="http://www.w3.org/2000/svg" viewBox="0 0 100 100">
  <defs>
    <style>
      .cls-1 {
        fill: none;
        stroke: #f60;
        stroke-linecap: round;
        stroke-linejoin: round;
        stroke-width: 6px;
      }
    </style>
  </defs>
  <line class="cls-1" x1="29.45" y1="22.01" x2="6.37" y2="26.92"/>
  <path class="cls-1" d="M55.37,16.87l19.52-4.15c5.46-1.16,10.75,2.56,11.49,8.06l2.93,21.95"/>
  <path class="cls-1" d="M5,28.35l1.85,41.18c.14,3.02,1.84,5.74,4.46,7.13l20.11,10.65c1.16.61,2.52-.35,2.37-1.67l-1.28-11.16c-.47-4.08-2.92-7.64-6.51-9.47l-4.71-2.39c-4.43-2.25-7.41-6.69-7.88-11.72l-1.67-17.85c-.23-2.44-1.74-4.56-3.95-5.51l-1.01-.44c-.87-.38-1.82.3-1.78,1.27Z"/>
  <line class="cls-1" x1="52.4" y1="82.19" x2="33.16" y2="87.16"/>
  <path class="cls-1" d="M95,63.42c-2.79.2-5.75.31-8.81.31-17.8,0-32.23-3.65-32.23-8.15s14.43-8.15,32.23-8.15c3.06,0,6.02.11,8.81.32"/>
  <line class="cls-1" x1="86.04" y1="81.47" x2="86.04" y2="63.73"/>
  <ellipse class="cls-1" cx="42.95" cy="20.01" rx="7.54" ry="7.51"/>
  <path class="cls-1" d="M36.58,24.28l-1.84.89c-1.7.82-2.87,2.43-3.13,4.29l-2.27,16.41c-.26,1.9,1.17,3.61,3.1,3.69l13.94.57c1.17.05,2.34-.13,3.45-.51l16.06-5.62c.44-.15.77-.52.87-.98l2.59-11.7c.23-1.02-.75-1.9-1.75-1.56l-15.85,5.29c-.44.15-.77.51-.88.96l-3.19,13.16"/>
  <path class="cls-1" d="M49.7,24.08h0c1.31.84,2.21,2.18,2.49,3.7l1.24,6.7"/>
  <line class="cls-1" x1="37.36" y1="33.85" x2="36.41" y2="44.31"/>
  <path class="cls-1" d="M34.15,44.29h5.08c1.94.01,3.65,1.24,4.27,3.07l.9,2.69"/>
  <path class="cls-1" d="M33.8,49.61l.85,2.64c.85,2.62,3.11,4.54,5.85,4.97l4.19.65c2.84.44,5.16,2.49,5.93,5.25l4.2,15c.52,1.86,2.45,2.95,4.32,2.44h0c1.83-.5,2.94-2.35,2.5-4.19l-3.87-16.37"/>
  <path class="cls-1" d="M63.91,65.49l2.43,9.02c.54,2.01,2.63,3.19,4.64,2.63h0c1.95-.54,3.12-2.53,2.64-4.49l-1.56-6.36"/>
</svg>