<?xml version="1.0" encoding="UTF-8"?>
<svg id="Layer_1" data-name="Layer 1" xmlns="http://www.w3.org/2000/svg" viewBox="0 0 100 100">
  <defs>
    <style>
      .cls-1 {
        fill: none;
        stroke: #231f20;
        stroke-linecap: round;
        stroke-linejoin: round;
        stroke-width: 4px;
      }
    </style>
  </defs>
  <path class="cls-1" d="M35.92,76.73l-.26,7.47c0,.27.13.52.35.6.54.22,1.62.5,2.73-.14.16-.09.27-.3.28-.51l.42-7.43"/>
  <line class="cls-1" x1="30.7" y1="76.73" x2="55.4" y2="75.61"/>
  <path class="cls-1" d="M53.69,52.79l3.07,36.67c0,.09.04.16.1.21.34.31,1.64,1.3,3.51.5.11-.05.18-.19.17-.33l-3.29-38.18s.1-2.03-2.49-1.78c-.02,0-.05,0-.07.02l-15.62,6.23c-.13.05-.2.21-.17.37l1.78,8.51c.03.14.14.24.26.23l13.61-.62"/>
  <line class="cls-1" x1="44.47" y1="54.48" x2="40.72" y2="65.25"/>
  <path class="cls-1" d="M22.92,54.22l2.05-.88s.06-.02.1-.03c.38-.1,2.88-.68,3.04,1.5l3.47,39.03c.05.51-.25.97-.68,1.05-.89.16-2.31.27-2.89-.51-.09-.12-.13-.29-.14-.45l-3.12-36.79s0-.05,0-.07c-.03-.23-.23-1.39-.86-2.48-.21-.36-.6-.5-.95-.35l-.51.22-13.23,5.35c-.8.94-1.03-.61-1.03-.61l-3.02-13.27c-.4-.54.28-1.22.28-1.22l3.31-4.11c.23-.61,1.2-.47,1.2-.47l24.05,1.01c1.26-.14,1.37,1.55,1.37,1.55l3.49,13.54"/>
  <path class="cls-1" d="M8.81,60.08l-2.27,25.92c-.03.34.14.65.42.75.64.23,1.82.51,2.82-.12.17-.1.27-.31.29-.54l2.54-27.69"/>
  <path class="cls-1" d="M40.72,65.26s-5.24.29-11.14.56"/>
  <path class="cls-1" d="M8.48,40.89l4.3,17.44.78,3.17s.62,2.37.63,2.38c.64,2.07.51,2.26,2.5,2.34,1.06.04,4.67-.08,8.78-.25"/>
  <path class="cls-1" d="M26.39,76.81l-13.1.57s-1.94-.27-2.62,2.16"/>
  <path class="cls-1" d="M53.74,53.37c.03-1.94-2.26-2.22-4.67-1.23"/>
  <g>
    <path class="cls-1" d="M50.48,24.35c6.79-.04,12.12,1.17,12.59,2.46,0,.02.01.03.01.05.03.07.03.12.02.19,0,0,0,.02,0,.03-.15.92-5.6,2.2-12.62,2.25"/>
    <line class="cls-1" x1="63.1" y1="27.09" x2="61.53" y2="13.83"/>
    <path class="cls-1" d="M61.52,13.75v.07s-.17-1.61-2.12-2.24c0,0-.02,0-.03,0-.52-.12-2.71-.65-6.07-.65h-2.83"/>
    <path class="cls-1" d="M50.48,10.93h2.83c3.36,0,5.55.53,6.07.65,0,0,.02,0,.03,0,.03,0,.04,0,.04,0"/>
  </g>
  <g>
    <path class="cls-1" d="M50.48,24.35c-6.79-.04-12.12,1.17-12.59,2.46h0c-.04.1-.05.18-.03.27h0c.17.93,5.62,2.2,12.62,2.25"/>
    <line class="cls-1" x1="37.86" y1="27.09" x2="39.43" y2="13.83"/>
    <path class="cls-1" d="M50.48,10.93h-2.83c-3.36,0-5.55.53-6.07.65,0,0-.02,0-.03,0-1.95.63-2.12,2.24-2.12,2.24v-.07"/>
    <path class="cls-1" d="M41.51,11.6s.01,0,.04,0c0,0,.02,0,.03,0,.52-.12,2.71-.65,6.07-.65h2.83s0-5.93,0-5.93"/>
  </g>
  <g>
    <g>
      <path class="cls-1" d="M77.63,73.4c-.09-4.7,1.07-9.93,2.27-14.38,1.15-3.7,1.5-7.29,3.81-10.56,2.43-3.93,7.01-6.25,10.16-9.44,1.19-1.01,1.65-3.14.24-4.26-1.33-1.12-3.98-.96-5.9-.59-.61.19-.78.63-.63,1.25.14.63.31,1.19-.1,1.39-.57.28-1.81.14-2.62.21-3.94-.03-7.59,1.73-9.76,5.58-.8,1.67-.79,4.24,1.02,5.17,2.85,1.21,6.29-.67,5.75,4.19"/>
      <path class="cls-1" d="M68.63,56.74c.65-.04,1.33-.04,1.92.27.82.26,2.12,2.42,2.91,1.31,1.27-5.28-4.18-9.1-8.46-10.91-3.72-1.05.25,5.26.8,6.28,4.23,6.18,7.56,12.3,9.59,19.71"/>
      <path class="cls-1" d="M76.73,64.82c-.64-1.02-1.21-2.06-1.06-3.2.37-2.84,4.07-5.6,6.89-4.29,1.42.71,1.58,2.73,1.29,4.67-.29,3.19-2.17,5.53-5.36,5.85"/>
    </g>
    <path class="cls-1" d="M73.46,93.54c-.57-.1-1.14-.24-1.7-.44-1.76-.61-3.73-1.8-4.48-3.91-.39-1.1-.3-2.41-.28-3.57,0-1.11.06-2.21.15-3.31.14-1.72.37-3.43.68-5.13.12-.65.24-1.31.55-1.87.99-1.8,3.14-1.8,4.75-1.84,1.02-.02,2.04-.08,3.06-.06h.82c1.02-.02,2.04.03,3.06.06,1.61.04,3.76.05,4.75,1.84.31.56.44,1.22.55,1.87.3,1.7.54,3.4.68,5.13.08,1.1.14,2.2.15,3.31.01,1.17.11,2.47-.28,3.57-.75,2.11-2.72,3.3-4.48,3.91-.55.2-1.12.34-1.7.44-1.04.19-2.09.22-3.13.27-1.04-.05-2.1-.08-3.13-.27Z"/>
  </g>
</svg>