<?xml version="1.0" encoding="UTF-8"?>
<svg id="Layer_1" data-name="Layer 1" xmlns="http://www.w3.org/2000/svg" viewBox="0 0 100 100">
  <defs>
    <style>
      .cls-1 {
        stroke-width: 6px;
      }

      .cls-1, .cls-2 {
        stroke-miterlimit: 10;
      }

      .cls-1, .cls-2, .cls-3 {
        fill: none;
        stroke: #231f20;
        stroke-linecap: round;
      }

      .cls-2 {
        stroke-width: 3px;
      }

      .cls-4 {
        fill: #231f20;
      }

      .cls-3 {
        stroke-linejoin: round;
        stroke-width: 4px;
      }
    </style>
  </defs>
  <g>
    <g>
      <polyline class="cls-1" points="88.54 55.08 88.41 54.92 81.07 44.8 65.34 44.8 58.97 44.8 42.94 44.8 35.77 55.08 35.77 91.02 53.14 91.02"/>
      <polyline class="cls-1" points="88.54 73.25 88.54 91.02 72.82 91.02"/>
      <line class="cls-1" x1="35.77" y1="55.08" x2="88.54" y2="55.08"/>
      <polyline class="cls-1" points="58.97 44.79 55.76 55.08 55.76 61.98 62.15 61.98"/>
      <polyline class="cls-1" points="65.34 44.79 68.55 55.08 68.55 61.98 62.15 61.98"/>
      <polyline class="cls-1" points="93.41 52.91 68.55 67.7 79.9 79.33 95 68.69"/>
      <g>
        <polyline class="cls-1" points="20.19 34.5 66.47 34.5 66.47 5 11.11 5 11.11 25.61"/>
        <line class="cls-2" x1="18.59" y1="12.23" x2="39.86" y2="12.23"/>
        <line class="cls-2" x1="18.59" y1="16.87" x2="39.86" y2="16.87"/>
        <line class="cls-2" x1="39.46" y1="24.49" x2="60.73" y2="24.49"/>
        <line class="cls-2" x1="39.46" y1="28.69" x2="60.73" y2="28.69"/>
        <path class="cls-3" d="M7.56,23.3c-1.38,1.51-3.04,3.49-2.43,5.54.64,2.76,3.55,15.43,4.08,17.68.1.33.14.52.49.59.4.07,1.37.03,2.82.04,3.5,0,9.27,0,11.08,0,.68.04.87-.28.86-1,0-1.09-.14-2.33.3-3.37.81-1.77,3.05-4.64,4.29-6.62.58-.88,1.13-1.58-.11-1.58-1.41-.05-5.17-.05-6.72-.05-1.72.02-2.25,1.91-3.37,3.04-.33.42-.86,1.08-1.12,1.4.02-.03.17-.23.41-.52.6-.88,1.67-1.84,2.04-2.85.11-1.26-2.06-3.22-2.06-4.46,1.17-2.22,4.16-3.82,4.63-6.22.59-1.61-.24-3.2-2.08-3.08-1.39.03-1.96.78-3.62,2.2-.78.68-1.65,1.44-2.41,2.1-1.13.99-1.8,1.64-2.9,1.15-.62-.27-.87-1.21-.98-2.11-.07-1.8-1.52-3.05-3.06-1.96l-.13.11Z"/>
      </g>
      <path class="cls-1" d="M6.52,64.14c0-.1-1.44-17.08-1.44-17.08h22.11l1.53,16.14"/>
    </g>
    <path class="cls-3" d="M69.06,70.09h0c-2,1.07-3.2,2.1-5.48,2.4l-.37.05c-1.46.19-2.95.2-4.41.05h0c-1.23-.13-2.45.26-3.35,1.06l-1.84,1.64c-.71.63-1.49,1.19-2.32,1.67l-2.32,1.34c-.65.38-.83,1.2-.38,1.78h0c.25.32.64.51,1.06.51h1.18c.55,0,1.09-.14,1.57-.4l2.04-1.11c.49-.27,1.07.17.91.68l-2.81,8.65c-.15.45-.17.93-.06,1.39h0c.36,1.57,2.05,2.53,3.68,2.09h0s.34-.2.72-.45c1.39-.91,2.39-2.3,2.82-3.9l.64-2.36c.13-.22.5-.11.46.14l-1.3,4.88c-.29,1.07.01,2.23.82,3,0,0,0,0,.01,0h0c.45.43.87.65,1.84.55l.72-.37c.4-.17.98-.89,1.12-1.28l2.26-6.05-1.27,6.54c-.09.6.73,1.3,1.17,1.75h0c.6.61,1.52.81,2.34.53l.44-.15c.46-.16.85-.47,1.11-.87l2.54-4.01c.76-1.21,1.32-2.52,1.65-3.89l.48-2.04c.32-1.33.96-2.58,1.88-3.63h0c.53-.61.82-1.38.82-2.17v-.78"/>
  </g>
  <rect class="cls-4" x="52.27" y="9.1" width="7.66" height="8.84"/>
</svg>