<?xml version="1.0" encoding="UTF-8"?>
<svg id="Layer_1" data-name="Layer 1" xmlns="http://www.w3.org/2000/svg" viewBox="0 0 100 100">
  <defs>
    <style>
      .cls-1 {
        fill: none;
        stroke: #241f20;
        stroke-linecap: round;
        stroke-linejoin: round;
        stroke-width: 4px;
      }

      .cls-2 {
        fill: #241f20;
      }
    </style>
  </defs>
  <path class="cls-1" d="M27.02,93.18c-4.16-.64-8.59-1.59-11.99-4.15l-.03-19.16c.7-10.85,15.46-13.2,23.15-17.12.31-.16.62-.29.82-.59v-3.36c-2.82-2.28-4.96-5.54-5.86-9.04-.99-3.89-.43-7.98-.58-11.96-2.14.55-4.41-1.62-2.76-3.5.96-1.1,2.6-.48,2.84-.83.33-5.83,3.87-11.4,9.11-14.01l1.78,6.99c.54.95,2,.75,2.19-.34l-2.09-8.57c.39-1.31,1.47-2.28,2.86-2.42,1.74-.17,5.02-.14,6.79,0,1.6.12,2.58.84,3.14,2.33l-2.05,8.77c.33,1.07,1.71,1.13,2.2.14.74-1.48,1.2-4.92,1.73-6.7.04-.14-.08-.28.21-.2.38.11,1.44.87,1.82,1.14,4.19,2.96,6.88,7.89,7.17,13,1.88-.34,3.78.65,3.16,2.78-.39,1.34-1.95,1.53-3.16,1.42-.15,4.21.47,8.54-.75,12.63-.96,3.22-3.07,6.26-5.68,8.37v3.36c.2.3.51.43.82.59,7.7,3.92,22.45,6.26,23.15,17.12v19.16c-3.38,2.68-7.86,3.53-12.02,4.3v-7h-20.78v8.68h-4.38v-8.68h-20.78v6.86ZM63.22,27.8h-26.44c.17,4.86-.77,9.72,1.78,14.13,5.04,8.7,17.85,8.7,22.88,0,2.55-4.41,1.61-9.27,1.78-14.13ZM27.31,82.12h20.5v-7.91l-7.51-17.7-9.58,3.8-3.42,21.81ZM72.69,82.12l-3.36-21.67-.36-.34-9.28-3.61-7.5,17.71v7.91h20.5Z"/>
  <path class="cls-2" d="M56.57,51.46c-4.28,1.64-8.87,1.64-13.15,0-.05,1.82-.86,3.23-2.12,4.48,5.68,1.63,11.71,1.63,17.39,0,.09-.36-.28-.3-.5-.55-1.04-1.14-1.54-2.38-1.62-3.93Z"/>
</svg>