<?xml version="1.0" encoding="UTF-8"?>
<svg id="Layer_1" data-name="Layer 1" xmlns="http://www.w3.org/2000/svg" viewBox="0 0 100 100">
  <defs>
    <style>
      .cls-1 {
        fill: none;
        stroke: #231f20;
        stroke-linecap: round;
        stroke-linejoin: round;
        stroke-width: 6px;
      }
    </style>
  </defs>
  <path class="cls-1" d="M50,7.5c-13.05,0-23.62,10.5-23.62,23.45s23.62,38.62,23.62,38.62c0,0,23.63-25.66,23.63-38.62S63.05,7.5,50,7.5ZM50,42.25c-5.27,0-9.54-4.24-9.54-9.47s4.27-9.48,9.54-9.48,9.55,4.24,9.55,9.48-4.28,9.47-9.55,9.47Z"/>
  <g>
    <g>
      <polyline class="cls-1" points="24.8 45.96 5 74.78 27.13 92.5 36.98 53.42"/>
      <line class="cls-1" x1="54.44" y1="92.5" x2="27.13" y2="92.5"/>
    </g>
    <g>
      <polyline class="cls-1" points="75.2 45.96 95 74.78 72.87 92.5 63.02 53.42"/>
      <line class="cls-1" x1="45.56" y1="92.5" x2="72.87" y2="92.5"/>
    </g>
  </g>
</svg>