<?xml version="1.0" encoding="UTF-8"?>
<svg id="Layer_1" data-name="Layer 1" xmlns="http://www.w3.org/2000/svg" viewBox="0 0 100 100">
  <defs>
    <style>
      .cls-1 {
        fill: none;
        stroke: #231f20;
        stroke-linecap: round;
        stroke-miterlimit: 10;
        stroke-width: 6px;
      }
    </style>
  </defs>
  <path class="cls-1" d="M28.49,63.21l-18.32,7.21c-1.19.47-2.67-.13-2.67-1.09V15.18c0-.45.34-.86.89-1.08l12.48-5.04,9.62-3.89c1.19-.48,2.69.12,2.69,1.08v14.12"/>
  <path class="cls-1" d="M28.49,22.98v54.15c0,.96,1.48,1.56,2.67,1.09l22.1-8.69c.56-.22.91-.64.91-1.09V14.05c0-.96-1.49-1.56-2.69-1.08l-22.1,8.93c-.55.22-.89.63-.89,1.08Z"/>
  <path class="cls-1" d="M58.99,30.91v54.01c0,.45.33.87.86,1.09l21.09,8.83c1.12.47,2.51-.13,2.51-1.09v-54.13c0-.45-.33-.87-.86-1.09l-21.09-8.71c-1.12-.46-2.5.14-2.5,1.09Z"/>
  <line class="cls-1" x1="10.76" y1="5" x2="92.5" y2="37.79"/>
</svg>