<?xml version="1.0" encoding="UTF-8"?>
<svg id="Layer_1" data-name="Layer 1" xmlns="http://www.w3.org/2000/svg" viewBox="0 0 100 100">
  <defs>
    <style>
      .cls-1 {
        fill: none;
        stroke: #231f20;
        stroke-linecap: round;
        stroke-linejoin: round;
        stroke-width: 4px;
      }
    </style>
  </defs>
  <ellipse class="cls-1" cx="50" cy="50" rx="45" ry="41.35"/>
  <path class="cls-1" d="M45.41,53.6c-10.95,1.68-19.42,10.72-20.09,21.8l8.85.07c.4-6.66,5.09-12.14,11.43-13.85v15.59h8.84v-15.59c6.28,1.72,11.03,7.2,11.41,13.85l8.83-.07c-.67-11.09-9.15-20.12-20.08-21.8v-7.18c10.93-1.69,19.41-10.7,20.08-21.74l-8.83-.08c-.38,6.62-5.13,12.09-11.41,13.76v-15.58h-8.84v15.58c-6.34-1.67-11.03-7.14-11.43-13.76l-8.85.08c.67,11.04,9.14,20.05,20.09,21.74v7.18Z"/>
</svg>