<?xml version="1.0" encoding="UTF-8"?>
<svg id="Layer_1" data-name="Layer 1" xmlns="http://www.w3.org/2000/svg" viewBox="0 0 100 100">
  <defs>
    <style>
      .cls-1 {
        stroke-width: 2.5px;
      }

      .cls-1, .cls-2 {
        fill: none;
        stroke: #231f20;
        stroke-linecap: round;
        stroke-miterlimit: 10;
      }

      .cls-3 {
        fill: #231f20;
      }

      .cls-2 {
        stroke-width: 2px;
      }
    </style>
  </defs>
  <g>
    <path class="cls-1" d="M46.91,6.63c.5-.22,1.04-.34,1.61-.34h21.86c2.42,0,4.37,2.13,4.37,4.75v15.83"/>
    <path class="cls-1" d="M74.75,41.19v49.06c0,2.62-1.95,4.75-4.37,4.75h-21.86c-2.42,0-4.37-2.13-4.37-4.75v-28.56"/>
    <path class="cls-1" d="M63.24,9.99h3.55c2.41,0,4.36,2.13,4.36,4.75v3.24"/>
    <rect class="cls-1" x="57.77" y="26.87" width="29.73" height="14.31" rx="6.53" ry="6.53"/>
    <rect class="cls-1" x="50.14" y="59.33" width="18.61" height="29.67" rx="2.83" ry="2.83"/>
    <rect class="cls-1" x="12.5" y="5" width="35.29" height="56.7" rx="4.19" ry="4.19"/>
  </g>
  <g id="cf-logo-white">
    <path class="cls-3" d="M20.07,12.77c-1.87,0-3.38,1.5-3.38,3.34s1.51,3.35,3.38,3.35,3.38-1.5,3.38-3.35c0-1.85-1.51-3.34-3.38-3.34ZM20.85,17.28l-.72-1.29-.75,1.29h-.95s1.71-2.92,1.71-2.92l1.65,2.92h-.92Z"/>
    <path class="cls-3" d="M26.58,15.53c.24,0,.46-.05.65-.14h.02s0-.39,0-.39l-.05.02c-.18.09-.37.13-.58.13-.24,0-.45-.07-.6-.21-.16-.14-.24-.32-.24-.53,0-.21.08-.39.24-.52.16-.14.36-.21.61-.21.21,0,.4.04.58.11l.05.02v-.39s-.02,0-.02,0c-.18-.07-.39-.11-.65-.11-.36,0-.66.1-.88.3-.23.2-.35.47-.35.8s.12.6.35.81c.23.21.53.31.88.31Z"/>
    <path class="cls-3" d="M29.75,13.61c-.22-.21-.51-.31-.86-.31s-.64.1-.86.31c-.22.21-.33.47-.33.79s.11.6.33.81c.22.21.51.32.86.32s.64-.11.86-.32c.22-.21.33-.49.33-.81s-.11-.58-.33-.79ZM29.45,14.94c-.14.14-.32.21-.55.21s-.41-.07-.55-.21c-.14-.14-.21-.32-.21-.54,0-.2.07-.38.21-.52.14-.14.32-.21.55-.21s.4.07.55.21c.14.14.21.31.21.52,0,.22-.07.4-.21.54Z"/>
    <path class="cls-3" d="M32.02,14.97l-.75-1.63h-.59v2.15h.41v-1.6s.03.07.05.11l.68,1.49h.38s.67-1.48.67-1.48c0-.01.02-.04.04-.1,0,0,0-.01,0-.02v1.6h.42v-2.15h-.6s-.73,1.63-.73,1.63Z"/>
    <path class="cls-3" d="M35.77,13.55c-.15-.14-.37-.21-.63-.21h-1.01v2.15h.43v-.58s.58,0,.58,0c.26,0,.47-.07.63-.21.15-.14.23-.34.23-.57s-.08-.43-.23-.57ZM35.46,14.44c-.09.08-.21.12-.36.12h-.54s0-.87,0-.87h.54c.15,0,.28.04.36.12.09.08.13.18.13.31s-.04.23-.13.31Z"/>
    <path class="cls-3" d="M37.63,13.34h-.53s-.98,2.15-.98,2.15h.46s.18-.42.18-.42h1.19s.18.42.18.42h.48s-.98-2.15-.98-2.15ZM36.92,14.7l.43-1,.44,1h-.87Z"/>
    <path class="cls-3" d="M40.02,14.21l-.19-.04c-.18-.03-.31-.07-.37-.12-.06-.04-.08-.09-.08-.15,0-.08.05-.13.15-.17.11-.04.25-.06.4-.06.23,0,.44.04.65.12l.05.02v-.39s-.02,0-.02,0c-.23-.08-.45-.12-.67-.12-.28,0-.51.05-.7.16-.19.11-.28.27-.28.48,0,.15.06.28.17.4.11.11.3.19.55.23l.21.04c.16.03.28.07.34.11.06.04.09.1.09.16,0,.08-.05.15-.15.2-.11.05-.24.08-.41.08-.28,0-.53-.06-.76-.18l-.05-.03v.4s.02,0,.02,0c.24.11.51.17.81.17.27,0,.5-.06.68-.18.18-.12.28-.29.28-.51,0-.16-.06-.29-.17-.4-.11-.1-.29-.18-.54-.23Z"/>
    <path class="cls-3" d="M42.82,14.44c-.11-.1-.29-.18-.54-.23l-.19-.04c-.18-.03-.31-.07-.37-.12-.06-.04-.08-.09-.08-.15,0-.08.05-.13.15-.17.11-.04.25-.06.4-.06.23,0,.44.04.65.12l.05.02v-.39s-.02,0-.02,0c-.23-.08-.45-.12-.67-.12-.28,0-.51.05-.7.16-.19.11-.28.27-.28.48,0,.15.06.28.17.4.11.11.3.19.55.23l.21.04c.16.03.28.07.34.11.06.04.09.1.09.16,0,.08-.05.15-.15.2-.11.05-.24.08-.41.08-.28,0-.53-.06-.76-.18l-.05-.03v.4s.02,0,.02,0c.24.11.51.17.81.17.27,0,.5-.06.68-.18.18-.12.28-.29.28-.51,0-.16-.06-.29-.17-.4Z"/>
    <path class="cls-3" d="M27.39,17.02c-.22-.2-.51-.31-.86-.31s-.63.1-.86.31c-.22.21-.33.47-.33.79s.11.6.33.81c.22.21.51.32.86.32s.64-.11.86-.32c.22-.21.33-.49.33-.81s-.11-.58-.33-.79ZM27.08,18.35c-.14.14-.32.21-.55.21s-.41-.07-.55-.21-.21-.32-.21-.54.07-.38.21-.52c.14-.14.32-.21.55-.21s.4.07.55.21c.14.14.21.31.21.52,0,.22-.07.4-.21.54Z"/>
    <polygon class="cls-3" points="28.33 18.9 28.75 18.9 28.75 18.17 29.89 18.17 29.89 17.81 28.75 17.81 28.75 17.12 30 17.12 30 16.74 28.33 16.74 28.33 18.9"/>
    <polygon class="cls-3" points="30.6 18.9 31.03 18.9 31.03 18.17 32.16 18.17 32.16 17.81 31.03 17.81 31.03 17.12 32.27 17.12 32.27 16.74 30.6 16.74 30.6 18.9"/>
    <rect class="cls-3" x="32.9" y="16.74" width=".43" height="2.15"/>
    <path class="cls-3" d="M35.13,16.71c-.36,0-.66.1-.88.3-.23.2-.35.47-.35.8s.12.6.35.81c.23.21.53.31.88.31.24,0,.46-.05.65-.14h.02s0-.39,0-.39l-.05.02c-.18.09-.37.13-.58.13-.24,0-.45-.07-.6-.21-.16-.14-.24-.32-.24-.53,0-.21.08-.39.24-.52.16-.14.36-.21.61-.21.21,0,.4.04.58.11l.05.02v-.39s-.02,0-.02,0c-.18-.07-.39-.11-.65-.11Z"/>
    <polygon class="cls-3" points="36.94 17.99 38.18 17.99 38.18 17.64 36.94 17.64 36.94 17.1 38.23 17.1 38.23 16.74 36.51 16.74 36.51 18.9 38.26 18.9 38.26 18.54 36.94 18.54 36.94 17.99"/>
    <path class="cls-3" d="M40.02,17.62l-.19-.04c-.18-.03-.31-.07-.37-.12-.06-.04-.08-.09-.08-.15,0-.08.05-.13.15-.17.11-.04.25-.06.4-.06.23,0,.44.04.65.12l.05.02v-.39s-.02,0-.02,0c-.23-.08-.45-.12-.67-.12-.28,0-.51.05-.7.16-.19.11-.28.27-.28.48,0,.15.06.28.17.4.11.11.3.19.55.23l.21.04c.16.03.28.07.34.11.06.04.09.1.09.16,0,.08-.05.15-.15.2-.11.05-.24.08-.41.08-.28,0-.53-.06-.76-.18l-.05-.03v.4s.02,0,.02,0c.24.11.51.17.81.17.27,0,.5-.06.68-.18.18-.12.28-.29.28-.51,0-.16-.06-.29-.17-.4-.11-.1-.29-.18-.54-.23Z"/>
  </g>
  <g>
    <g>
      <path class="cls-2" d="M54.38,76.62c-.52-.68-.82-1.53-.82-2.45s.31-1.77.82-2.45"/>
      <path class="cls-2" d="M57.08,75.48c-.28-.36-.44-.82-.44-1.31s.16-.95.44-1.31"/>
      <path class="cls-2" d="M64.51,71.72c.52.68.82,1.53.82,2.45,0,.92-.31,1.77-.82,2.45"/>
      <path class="cls-2" d="M61.81,72.86c.28.36.44.82.44,1.31,0,.49-.16.95-.44,1.31"/>
    </g>
    <circle class="cls-3" cx="59.45" cy="74.17" r="1.23"/>
  </g>
</svg>