<?xml version="1.0" encoding="UTF-8"?>
<svg id="Layer_1" data-name="Layer 1" xmlns="http://www.w3.org/2000/svg" viewBox="0 0 100 100">
  <defs>
    <style>
      .cls-1 {
        fill: none;
        stroke: #231f20;
        stroke-linecap: round;
        stroke-linejoin: round;
        stroke-width: 4px;
      }
    </style>
  </defs>
  <path class="cls-1" d="M50.34,22.91c-8.55-8.86,0-17.91,0-17.91h35.05s3.68,1.73,1.32,8.96c-2.36,7.23-8.16,31.05-7.96,36.24.2,5.19,0,11.28,0,11.28H17.6c-2.82,0-5.1-2.37-5.1-5.28h0c0-2.92,2.28-5.28,5.1-5.28h24.5l8.24-27.99Z"/>
  <line class="cls-1" x1="72.75" y1="23.32" x2="50.34" y2="23.32"/>
  <path class="cls-1" d="M81.89,5s-9.53,4.45-3.15,20.04l-7.57,25.67"/>
  <polyline class="cls-1" points="78.74 50.9 54.96 50.9 49.66 50.9"/>
  <path class="cls-1" d="M54.96,50.9h-5.3c-1.41,0-2.68.59-3.61,1.54-.92.96-1.49,2.28-1.49,3.73,0,2.93,2.28,5.29,5.1,5.29h5.3"/>
  <g>
    <ellipse class="cls-1" cx="31.95" cy="90.15" rx="4.34" ry="4.5"/>
    <ellipse class="cls-1" cx="68.3" cy="90.5" rx="4.34" ry="4.5"/>
  </g>
  <ellipse class="cls-1" cx="50.12" cy="90.5" rx="4.34" ry="4.5"/>
  <polyline class="cls-1" points="47.07 80.08 47.07 61.76 53.18 61.76 53.18 80.08"/>
  <polyline class="cls-1" points="32.24 85.66 32.24 80.08 47.07 80.08 50.12 80.08 53.18 80.08 68.01 80.08 68.01 86.02"/>
  <polyline class="cls-1" points="50.12 86.01 50.12 80.63 50.12 80.08"/>
</svg>