<?xml version="1.0" encoding="UTF-8"?>
<svg id="Layer_1" data-name="Layer 1" xmlns="http://www.w3.org/2000/svg" viewBox="0 0 100 100">
  <defs>
    <style>
      .cls-1 {
        fill: none;
        stroke: #231f20;
        stroke-linecap: round;
        stroke-linejoin: round;
        stroke-width: 4px;
      }
    </style>
  </defs>
  <path class="cls-1" d="M31.21,46.13c3.79,1.48,13.18,3.97,31.11,2.31.24-.02.48-.1.7-.21l7.66-4.18c.58-.32.94-.93.94-1.59v-21.73c0-2.78-2.2-5.06-4.96-5.15l-18.23-.58c-2.39-.08-4.56,1.39-5.4,3.65h0c-.21.58-.33,1.19-.35,1.81l-.48,18.51c-.02.73-.48,1.38-1.16,1.64l-9.82,3.76c-.8.31-.81,1.45,0,1.76Z"/>
  <line class="cls-1" x1="31.2" y1="46.13" x2="27.5" y2="78.51"/>
  <line class="cls-1" x1="45.13" y1="48.8" x2="45.13" y2="68.56"/>
  <line class="cls-1" x1="62.68" y1="48.41" x2="65.19" y2="85"/>
  <line class="cls-1" x1="69.9" y1="44.47" x2="72.5" y2="71.3"/>
</svg>