<?xml version="1.0" encoding="UTF-8"?>
<svg id="Layer_1" data-name="Layer 1" xmlns="http://www.w3.org/2000/svg" viewBox="0 0 100 100">
  <defs>
    <style>
      .cls-1 {
        fill: none;
        stroke: #231f20;
        stroke-linecap: round;
        stroke-linejoin: round;
        stroke-width: 2.5px;
      }
    </style>
  </defs>
  <path class="cls-1" d="M71.83,20.98l-19.88,9.26c-1.89.88-3.07,2.59-3.07,4.42l.02,55.61c0,3.71,4.62,5.93,8.36,4.03l17.91-9.12c1.73-.88,2.82-2.46,2.88-4.17l1.95-55.76c.13-3.7-4.36-6.04-8.17-4.27Z"/>
  <line class="cls-1" x1="32.98" y1="79.41" x2="32.98" y2="79.41"/>
  <path class="cls-1" d="M22.4,82.18c-.15-.09-.3-.19-.44-.3-.55-.4-1.01-.92-1.35-1.52-.39-.68-.61-1.48-.61-2.35l.14-51.14.02-6.95c0-1.91,1.15-3.69,2.94-4.61l11.79-6.02,7.16-3.66c.86-.43,1.74-.63,2.6-.63l4.22,2.07,28.01,13.77h.01l.7.33.03.02"/>
  <line class="cls-1" x1="23.77" y1="82.75" x2="23.76" y2="82.75"/>
  <line class="cls-1" x1="20.14" y1="25.28" x2="48.88" y2="39.47"/>
  <line class="cls-1" x1="20.01" y1="73.87" x2="48.91" y2="86.2"/>
  <line class="cls-1" x1="73.02" y1="76.67" x2="54.54" y2="67.12"/>
  <line class="cls-1" x1="69.57" y1="80.93" x2="54.46" y2="73.44"/>
  <polyline class="cls-1" points="65.32 24.01 49.59 16.41 34.88 9.29"/>
  <line class="cls-1" x1="22.4" y1="82.18" x2="51.61" y2="94.36"/>
  <path class="cls-1" d="M69.43,29.19l-12.55,6.12c-1.2.7-1.96,2.05-1.97,3.5l-.57,44.3c-.02,2.94,2.88,4.7,5.26,3.19l11.58-6.24c1.09-.7,1.79-1.95,1.84-3.31l1.54-44.17c.1-2.93-2.72-4.79-5.13-3.38Z"/>
  <path class="cls-1" d="M54.84,44.52c2.77.98,8.97,2.52,14.3-1"/>
  <path class="cls-1" d="M54.79,48.8c2.82,1,8.94,2.45,14.2-1.02"/>
  <line class="cls-1" x1="69.14" y1="43.52" x2="55.63" y2="36.5"/>
  <line class="cls-1" x1="68.99" y1="47.78" x2="69.14" y2="43.52"/>
  <line class="cls-1" x1="74.59" y1="56.39" x2="70.83" y2="58.27"/>
  <line class="cls-1" x1="74.7" y1="53.28" x2="70.94" y2="55.15"/>
</svg>