<?xml version="1.0" encoding="UTF-8"?>
<svg id="Layer_1" data-name="Layer 1" xmlns="http://www.w3.org/2000/svg" viewBox="0 0 100 100">
  <defs>
    <style>
      .cls-1 {
        fill: none;
        stroke: #f60;
        stroke-linecap: round;
        stroke-miterlimit: 10;
        stroke-width: 6px;
      }

      .cls-2 {
        fill: #f60;
      }
    </style>
  </defs>
  <g>
    <path class="cls-1" d="M95,16.28v76.77c0,1.07-.87,1.95-1.95,1.95H6.95c-1.07,0-1.95-.87-1.95-1.95V16.28c0-1.07.87-1.95,1.95-1.95h5.97v60.9c0,3.75,2.38,6.79,5.32,6.79h10.29c2.94,0,5.32-3.04,5.32-6.79V14.34h59.21c1.07,0,1.95.87,1.95,1.95Z"/>
    <path class="cls-1" d="M33.85,11.79v64.44c0,3.2-2.03,5.79-4.54,5.79h-11.85c-2.51,0-4.54-2.59-4.54-5.79V11.79c0-3.75,2.38-6.79,5.32-6.79h10.29c2.94,0,5.32,3.04,5.32,6.79Z"/>
    <rect class="cls-1" x="45.02" y="22.12" width="38.19" height="15.04"/>
  </g>
  <g>
    <g>
      <rect class="cls-2" x="47.37" y="45.53" width="7.97" height="7" rx="1.75" ry="1.75"/>
      <rect class="cls-2" x="60.13" y="45.53" width="7.97" height="7" rx="1.75" ry="1.75"/>
      <rect class="cls-2" x="72.9" y="45.53" width="7.97" height="7" rx="1.75" ry="1.75"/>
    </g>
    <g>
      <rect class="cls-2" x="47.37" y="56.42" width="7.97" height="7" rx="1.75" ry="1.75"/>
      <rect class="cls-2" x="60.13" y="56.42" width="7.97" height="7" rx="1.75" ry="1.75"/>
      <rect class="cls-2" x="72.9" y="56.42" width="7.97" height="7" rx="1.75" ry="1.75"/>
    </g>
    <g>
      <rect class="cls-2" x="47.37" y="67.31" width="7.97" height="7" rx="1.75" ry="1.75"/>
      <rect class="cls-2" x="60.13" y="67.31" width="7.97" height="7" rx="1.75" ry="1.75"/>
      <rect class="cls-2" x="72.9" y="67.31" width="7.97" height="7" rx="1.75" ry="1.75"/>
    </g>
    <g>
      <rect class="cls-2" x="47.37" y="78.2" width="7.97" height="7" rx="1.75" ry="1.75"/>
      <rect class="cls-2" x="60.13" y="78.2" width="7.97" height="7" rx="1.75" ry="1.75"/>
      <rect class="cls-2" x="72.9" y="78.2" width="7.97" height="7" rx="1.75" ry="1.75"/>
    </g>
  </g>
</svg>