<?xml version="1.0" encoding="UTF-8"?>
<svg id="Layer_1" data-name="Layer 1" xmlns="http://www.w3.org/2000/svg" viewBox="0 0 100 100">
  <defs>
    <style>
      .cls-1 {
        stroke-width: 6px;
      }

      .cls-1, .cls-2 {
        fill: none;
        stroke: #231f20;
        stroke-linecap: round;
        stroke-linejoin: round;
      }

      .cls-2 {
        stroke-width: 4px;
      }
    </style>
  </defs>
  <g>
    <polyline class="cls-1" points="53.86 41.73 53.86 49.38 5 49.38 5 16.23 53.86 16.23 53.86 29.33"/>
    <path class="cls-1" d="M82.81,30.36c-.14,8.29-12.62,8.29-12.76,0,.14-8.29,12.62-8.29,12.76,0Z"/>
    <path class="cls-1" d="M88.17,60.5c-1.68-2.8-4.07-9.2-5.09-11.19-.28-.59-.3-.28-.25.26,1,9.82,1.81,24.4,2.26,35.15.64,3.6-2.84,6.94-6.14,4.38-1.35-1.15-1.52-2.62-1.62-4.2-.21-2.54-.77-10.62-1.02-13.28-.35,2.22-.86,11.36-1.1,13.61-.08,1.59-.48,3.15-1.95,4.14-3.33,2.03-6.4-1.26-5.77-4.65.24-4,1-16.86,1.17-19.74.36-5.37,1.22-14.92,1.48-19,.02-.78-.26-.81-1.37-1.1-5.99-1.52-17.15-4.32-20.9-5.28-4.02-.63-5.36-5.94-1.06-7.39,1.68-.49,2.49-.04,4.53.43,5.13,1.29,11.48,2.9,16.39,4.14,1.77.43,2.69.82,4.52.77,3.4.11,8.18-.42,11.2.38,2.14.53,3.92,1.97,4.62,4.05.88,1.95,2.69,6,4.21,9.38.57,1.27,1.1,2.44,1.51,3.37.55,1.3,1.19,2.32,1.19,3.7,0,3.63-4.54,5.08-6.77,2.15l-.06-.08Z"/>
    <line class="cls-1" x1="23.23" y1="49.38" x2="16.28" y2="80.48"/>
    <line class="cls-1" x1="34.59" y1="49.38" x2="41.54" y2="80.48"/>
    <polyline class="cls-2" points="13.06 39.05 26.56 29.61 33.98 35.55 43.44 28.46"/>
    <rect class="cls-1" x="26.33" y="10" width="6.2" height="6.23"/>
  </g>
  <ellipse class="cls-1" cx="43.44" cy="27.76" rx="1.59" ry="1.58"/>
  <ellipse class="cls-1" cx="34.13" cy="35.73" rx="1.59" ry="1.58"/>
  <ellipse class="cls-1" cx="26.33" cy="29.34" rx="1.59" ry="1.58"/>
  <ellipse class="cls-1" cx="13.06" cy="39.73" rx="1.59" ry="1.58"/>
</svg>