<?xml version="1.0" encoding="UTF-8"?>
<svg id="Layer_1" data-name="Layer 1" xmlns="http://www.w3.org/2000/svg" viewBox="0 0 100 100">
  <defs>
    <style>
      .cls-1 {
        fill: none;
        stroke: #231f20;
        stroke-linecap: round;
        stroke-linejoin: round;
        stroke-width: 2.5px;
      }
    </style>
  </defs>
  <g>
    <ellipse class="cls-1" cx="65.17" cy="31.23" rx="5.03" ry="4.98"/>
    <path class="cls-1" d="M22.15,36.21l5.49-6.2c.15-.17.38-.23.59-.16l7.82,2.55c.23.08.48,0,.63-.2l5.79-7.88c.18-.24.52-.3.76-.13l7.46,5.03c.22.15.52.12.71-.06l12.1-11.92"/>
    <path class="cls-1" d="M57.85,61.64l.74-16.37c.04-.96-.91-1.67-1.83-1.37l-3.54,1.17c-.77.26-1.61.25-2.38,0l-8.72-2.93c-1.45-.49-2.2-2.05-1.68-3.47h0c.5-1.36,2.01-2.08,3.4-1.63l6.94,2.26c.81.26,1.68.25,2.48-.05l5.44-2.01c4.11-1.52,8.69-1.21,12.55.86l1.07.57c.44.24.86.52,1.24.84l6.24,5.32c1.31,1.12,1.9,2.84,1.55,4.52l-.3,1.45"/>
    <path class="cls-1" d="M70.81,51.48v-5.08c0-.53.63-.82,1.04-.47l3.51,2.99"/>
    <line class="cls-1" x1="52.25" y1="55.82" x2="33.13" y2="55.82"/>
    <g>
      <path class="cls-1" d="M35.37,66.47h7.65c1.65,0,2.85,1.55,2.42,3.13l-2.92,10.64"/>
      <path class="cls-1" d="M35.36,79.42l4.97,1.48c2.16.64,3.65,2.62,3.63,4.85v5.37c-.01,2.15-1.77,3.89-3.94,3.89H10.22c-3.26,0-5.73-2.92-5.13-6.09l3.69-19.68c.42-2.29,2.45-3.95,4.81-3.95h13.93c2.34,0,4.36,1.64,4.8,3.91l3.05,15.57"/>
      <path class="cls-1" d="M34.36,75.36l2.9.49c1.31.22,2.45,1.04,3.06,2.21l1.71,3.23"/>
      <path class="cls-1" d="M27.72,60.54c0,1.92-.92,3.65-2.35,4.74h-7.45c-1.43-1.09-2.35-2.81-2.35-4.74,0-3.32,2.72-6.01,6.08-6.01s6.08,2.69,6.08,6.01Z"/>
      <g>
        <g>
          <path class="cls-1" d="M64.63,66.47h-7.65c-1.65,0-2.85,1.55-2.42,3.13l2.92,10.64"/>
          <path class="cls-1" d="M64.64,84.76l3.05-15.57c.44-2.27,2.46-3.91,4.8-3.91h2.14s7.46,0,7.46,0h4.34c2.36,0,4.39,1.66,4.81,3.95l3.69,19.68c.6,3.17-1.86,6.09-5.13,6.09h-29.81c-2.17,0-3.93-1.74-3.93-3.89v-5.37c-.02-2.23,1.46-4.21,3.62-4.85l4.97-1.48"/>
          <path class="cls-1" d="M65.64,75.36l-2.9.49c-1.31.22-2.45,1.04-3.06,2.21l-1.71,3.23"/>
          <path class="cls-1" d="M72.28,60.54c0,1.92.92,3.65,2.35,4.74h7.45c1.43-1.09,2.35-2.81,2.35-4.74,0-3.32-2.72-6.01-6.08-6.01s-6.08,2.69-6.08,6.01Z"/>
        </g>
        <path class="cls-1" d="M56.91,77.82l-2.91,1.33c-1.14.52-2,1.51-2.36,2.71l-2.9,9.79c-.39,1.31.33,2.7,1.64,3.14h0c1.34.46,2.81-.23,3.29-1.56l2.76-9.46"/>
      </g>
    </g>
  </g>
  <g>
    <rect class="cls-1" x="10.91" y="5" width="78.19" height="6.3"/>
    <polyline class="cls-1" points="13.3 49.9 13.3 11.3 86.74 11.3 86.74 49.9"/>
  </g>
</svg>