<?xml version="1.0" encoding="UTF-8"?>
<svg id="Layer_1" data-name="Layer 1" xmlns="http://www.w3.org/2000/svg" viewBox="0 0 100 100">
  <defs>
    <style>
      .cls-1 {
        fill: none;
        stroke: #f60;
        stroke-linecap: round;
        stroke-linejoin: round;
        stroke-width: 6px;
      }
    </style>
  </defs>
  <line class="cls-1" x1="30.69" y1="61.25" x2="58.85" y2="61.25"/>
  <line class="cls-1" x1="31.16" y1="73.06" x2="51.58" y2="73.06"/>
  <path class="cls-1" d="M72.8,77.24V5l-7.48,8.63-6.71-7.77-6.73,7.77-6.71-7.77-6.71,7.77-1.36-1.57-5.35-6.2h0l-6.71,7.77-6.84-7.9h-.68v78.73c0,5.8,4.39,10.5,9.78,10.5.19,0,.35,0,.54-.02,5.17-.29,9.27-4.88,9.27-10.48v-1.57h45.41c0,3.51-1.34,6.71-3.48,9.02-2.16,2.29-4.55,3.09-7.85,3.09H27.88l-.06-.07"/>
</svg>