<?xml version="1.0" encoding="UTF-8"?>
<svg id="Layer_1" data-name="Layer 1" xmlns="http://www.w3.org/2000/svg" viewBox="0 0 100 100">
  <defs>
    <style>
      .cls-1 {
        fill: none;
        stroke: #231f20;
        stroke-linecap: round;
        stroke-linejoin: round;
        stroke-width: 6px;
      }
    </style>
  </defs>
  <path class="cls-1" d="M18.65,16.5c0-4.97,4.04-9,9.02-9,11.97.47,11.96,17.53,0,18-4.98,0-9.02-4.03-9.02-9Z"/>
  <path class="cls-1" d="M42.08,39.51l-.78-4.51c-.57-3.3-3.3-5.79-6.64-6.07l-2.97-.25c-3.6-.34-7.4-.1-11,.25-3.34.28-6.07,2.77-6.64,6.07l-.78,4.51"/>
  <g>
    <path class="cls-1" d="M59.99,16.5c0-4.97,4.04-9,9.02-9,11.97.47,11.96,17.53,0,18-4.98,0-9.02-4.03-9.02-9Z"/>
    <path class="cls-1" d="M55.39,34.35c.57-3.3,3.45-5.79,6.79-6.07,3.6-.33,7.4-.6,11-.25,0,0,2.97.25,2.97.25,3.34.28,6.07,2.77,6.64,6.07.52,3,.72,6.05.6,9.09l-.58,14.3c-.05,1.28-.84,2.42-2.03,2.92-1.16.49-1.95,1.59-2.02,2.85l-1.52,24.61c-.15,2.47-2.2,4.39-4.68,4.39h-3.39s-.15,0-.15,0h-3.39c-2.48,0-4.53-1.92-4.68-4.39l-1.52-24.61c-.08-1.26-.86-2.36-2.02-2.85-1.19-.5-1.98-1.64-2.03-2.92l-.58-14.3c-.12-3.04.08-6.09.6-9.09.57-3.3,3.3-5.79,6.64-6.07l2.97-.25c3.6-.35,7.4-.09,11,.25,3.34.28,6.22,2.77,6.79,6.07"/>
  </g>
  <polyline class="cls-1" points="88.17 42.43 95 42.43 95 90.46 81.54 90.46"/>
  <path class="cls-1" d="M50.02,42.43H5v48.03h50.1"/>
</svg>