<?xml version="1.0" encoding="UTF-8"?>
<svg id="Layer_1" data-name="Layer 1" xmlns="http://www.w3.org/2000/svg" viewBox="0 0 100 100">
  <defs>
    <style>
      .cls-1 {
        fill: none;
        stroke: #231f20;
        stroke-linecap: round;
        stroke-linejoin: round;
        stroke-width: 6px;
      }

      .cls-2 {
        fill: #241f20;
      }
    </style>
  </defs>
  <g>
    <line class="cls-1" x1="30.69" y1="61.25" x2="58.85" y2="61.25"/>
    <line class="cls-1" x1="31.16" y1="73.06" x2="51.58" y2="73.06"/>
    <path class="cls-1" d="M72.8,77.24V5l-7.48,8.63-6.71-7.77-6.73,7.77-6.71-7.77-6.71,7.77-1.36-1.57-5.35-6.2h0l-6.71,7.77-6.84-7.9h-.68v78.73c0,5.8,4.39,10.5,9.78,10.5.19,0,.35,0,.54-.02,5.17-.29,9.27-4.88,9.27-10.48v-1.57h45.41c0,3.51-1.34,6.71-3.48,9.02-2.16,2.29-4.55,3.09-7.85,3.09H27.88l-.06-.07"/>
  </g>
  <path class="cls-2" d="M44.96,44.16c-4.09-.25-6.4-2.26-6.5-5.65h3.42c.23,1.76,1.16,2.66,3.09,2.86v-4.77s-.1,0-.13-.03c-3.06-.7-5.9-1.53-5.9-5.12,0-3.24,2.51-4.97,6.03-5.15v-1.48h1.51v1.51c3.37.3,5.5,2.16,5.73,5.32h-3.34c-.18-1.41-1.1-2.24-2.39-2.49v4.34c.05.03.1.03.15.03,3.24.65,6,1.66,6,5.22,0,3.37-2.59,5.25-6.15,5.43v2.13h-1.51v-2.16ZM44.96,33.18v-4.09c-1.58.15-2.54.88-2.54,1.98s.8,1.66,2.54,2.11ZM46.47,36.97v4.4c1.46-.15,2.64-.8,2.64-2.18,0-1.28-.98-1.78-2.64-2.21Z"/>
</svg>