<?xml version="1.0" encoding="UTF-8"?>
<svg id="Layer_1" data-name="Layer 1" xmlns="http://www.w3.org/2000/svg" viewBox="0 0 100 100">
  <defs>
    <style>
      .cls-1 {
        fill: none;
        stroke: #231f20;
        stroke-linecap: round;
        stroke-linejoin: round;
        stroke-width: 2.5px;
      }
    </style>
  </defs>
  <polyline class="cls-1" points="22.81 20 29.72 25.61 12.39 52.05 5 46.17"/>
  <path class="cls-1" d="M25.92,62.81s-.05-.05-.07-.07"/>
  <path class="cls-1" d="M37.69,71.67h0"/>
  <path class="cls-1" d="M44.19,75.31c1.92.98,3.95,1.9,6.08,2.77,0,0,7.53,4.88,9.11-.93v-1.97l-9.61-6.38"/>
  <path class="cls-1" d="M31.58,67.48s-.03-.02-.04-.03"/>
  <path class="cls-1" d="M20.65,57.54c-4.37-4.81-6.41-8.31-6.41-8.31"/>
  <path class="cls-1" d="M55.43,61.04l11.19,7.77s2.26,8.7-7.24,6.38"/>
  <path class="cls-1" d="M58.59,52.69l15.49,11.02s1.58,8.58-7.46,5.1"/>
  <path class="cls-1" d="M74.08,63.71l2.11-1.13c1.62-.87,2.64-2.59,2.64-4.47h0c0-1.65-.79-3.2-2.11-4.14l-20.16-14.38s-4.75.7-9.5-.46c0,0-1.02,1.49-2.59,3.04-2.8,2.79-7.01,3.46-10.57,1.81h0c-1.14-.53-1.52-2-.78-3.04l4.19-5.84c.82-1.15,1.99-1.98,3.32-2.36,3.27-.94,9.61-2.79,12.87-3.84,1.27-.41,2.63-.42,3.91-.03,2.22.67,5.8,1.6,8.08,1.45,3.51-.23,7.69-1.16,7.69-1.16"/>
  <line class="cls-1" x1="86.86" y1="50.25" x2="78.24" y2="55.92"/>
  <polyline class="cls-1" points="76.8 20 70.69 25.43 88.1 52.69 95 46.89"/>
  <path class="cls-1" d="M27.73,28.64s5.56,4.12,15.21,3.41"/>
  <path class="cls-1" d="M28.53,59.38l-5.44,7.17c-1.24,1.63-3.54,1.93-5.13.65h0c-1.59-1.27-1.88-3.63-.64-5.27l5.44-7.17c1.24-1.63,3.54-1.93,5.13-.65h0c1.59,1.27,1.88,3.63.64,5.27Z"/>
  <path class="cls-1" d="M36.04,61.53l-8.6,11.32c-1.24,1.63-3.54,1.93-5.13.65h0c-1.59-1.27-1.88-3.63-.64-5.27l8.6-11.32c1.24-1.63,3.54-1.93,5.13-.65h0c1.59,1.27,1.88,3.63.64,5.27Z"/>
  <path class="cls-1" d="M40.69,67.7l-5.4,7.11c-1.24,1.63-3.54,1.93-5.13.65h0c-1.59-1.27-1.88-3.63-.64-5.27l5.4-7.11c1.24-1.63,3.54-1.93,5.13-.65h0c1.59,1.27,1.88,3.63.64,5.27Z"/>
  <path class="cls-1" d="M45.81,73.18l-3.19,4.2c-1.24,1.63-3.54,1.93-5.13.65h0c-1.59-1.27-1.88-3.63-.64-5.27l3.19-4.2c1.24-1.63,3.54-1.93,5.13-.65h0c1.59,1.27,1.88,3.63.64,5.27Z"/>
</svg>