<?xml version="1.0" encoding="UTF-8"?>
<svg id="Layer_1" data-name="Layer 1" xmlns="http://www.w3.org/2000/svg" viewBox="0 0 100 100">
  <defs>
    <style>
      .cls-1 {
        fill: none;
        stroke: #231f20;
        stroke-linecap: round;
        stroke-linejoin: round;
        stroke-width: 4px;
      }
    </style>
  </defs>
  <g>
    <path class="cls-1" d="M10,32.81c4.33,3.45,7.18,9.32,7.18,15.98,0,6.2-2.47,11.72-6.3,15.23"/>
    <path class="cls-1" d="M25.44,28.05c5.64,4.46,9.35,12.08,9.35,20.73,0,8.19-3.33,15.46-8.46,19.99"/>
    <path class="cls-1" d="M40.12,15.8c7.97,7.85,13.04,19.71,13.04,32.98s-4.82,24.52-12.43,32.37"/>
  </g>
  <path class="cls-1" d="M90,5v90h-6.91c-1.57,0-3.12-.4-4.5-1.17h0s-8.05-4.46-8.05-4.46c-3.99-2.21-3.99-8.14,0-10.35l8.05-4.46v-3.53l-8.05-4.46c-3.99-2.21-3.99-8.14,0-10.35l8.05-4.46v-3.52l-8.05-4.46c-3.99-2.21-3.99-8.14,0-10.35l8.05-4.46v-3.54l-7.82-4.33c-4.58-2.53-4.58-8.06,0-10.6l7.82-4.33h.02c1.38-.77,2.92-1.17,4.49-1.17h6.91Z"/>
</svg>