<?xml version="1.0" encoding="UTF-8"?>
<svg id="Layer_1" data-name="Layer 1" xmlns="http://www.w3.org/2000/svg" viewBox="0 0 100 100">
  <defs>
    <style>
      .cls-1 {
        fill: #231f20;
      }

      .cls-2 {
        fill: none;
        stroke: #231f20;
        stroke-linecap: round;
        stroke-linejoin: round;
        stroke-width: 2.5px;
      }
    </style>
  </defs>
  <g>
    <polyline class="cls-2" points="90 24.2 50.22 5 10.13 24.42 10 95 50.22 75.53 87.59 93.56"/>
    <path class="cls-1" d="M86.23,96.04c1.4.68,3.09.09,3.77-1.31.68-1.4.09-3.09-1.31-3.77-1.4-.68-3.09-.09-3.77,1.31-.68,1.4-.09,3.09,1.31,3.77Z"/>
  </g>
  <g>
    <polyline class="cls-2" points="50.22 18.36 63.25 24.65 71.83 40.56 87.59 48.16"/>
    <path class="cls-1" d="M86.23,50.64c1.4.68,3.09.09,3.77-1.31.68-1.4.09-3.09-1.31-3.77-1.4-.68-3.09-.09-3.77,1.31-.68,1.4-.09,3.09,1.31,3.77Z"/>
  </g>
  <line class="cls-2" x1="71.83" y1="28.79" x2="90" y2="37.56"/>
  <line class="cls-2" x1="50.22" y1="30.13" x2="64.3" y2="36.92"/>
  <g>
    <line class="cls-2" x1="90" y1="58.92" x2="52.63" y2="40.89"/>
    <path class="cls-1" d="M53.99,38.41c-1.4-.68-3.09-.09-3.77,1.31-.68,1.4-.09,3.09,1.31,3.77,1.4.68,3.09.09,3.77-1.31.68-1.4.09-3.09-1.31-3.77Z"/>
  </g>
  <g>
    <line class="cls-2" x1="50.22" y1="50.79" x2="72.5" y2="61.55"/>
    <path class="cls-1" d="M71.15,64.03c1.4.68,3.09.09,3.77-1.31.68-1.4.09-3.09-1.31-3.77s-3.09-.09-3.77,1.31c-.68,1.4-.09,3.09,1.31,3.77Z"/>
  </g>
  <polyline class="cls-2" points="50.22 61.02 75.01 72.63 83.42 66.82 90 69.99"/>
  <line class="cls-2" x1="81.58" y1="76.16" x2="89.81" y2="80.22"/>
  <polyline class="cls-2" points="37.14 81.91 35.9 24.42 17.77 33.17 18.35 90.97"/>
</svg>