<?xml version="1.0" encoding="UTF-8"?>
<svg id="Layer_1" data-name="Layer 1" xmlns="http://www.w3.org/2000/svg" viewBox="0 0 100 100">
  <defs>
    <style>
      .cls-1 {
        fill: #231f20;
      }

      .cls-2 {
        fill: none;
        stroke: #231f20;
        stroke-linecap: round;
        stroke-linejoin: round;
        stroke-width: 4px;
      }
    </style>
  </defs>
  <g>
    <polyline class="cls-2" points="90 24.2 50.22 5 10.13 24.42 10 95 50.22 75.53 86.14 92.86"/>
    <path class="cls-1" d="M83.98,96.82c2.24,1.08,4.94.14,6.02-2.1,1.08-2.24.14-4.94-2.1-6.02-2.24-1.08-4.94-.14-6.02,2.1s-.14,4.94,2.1,6.02Z"/>
  </g>
  <g>
    <polyline class="cls-2" points="50.22 18.36 63.25 24.65 71.83 40.56 86.14 47.46"/>
    <path class="cls-1" d="M83.98,51.43c2.24,1.08,4.94.14,6.02-2.1,1.08-2.24.14-4.94-2.1-6.02-2.24-1.08-4.94-.14-6.02,2.1s-.14,4.94,2.1,6.02Z"/>
  </g>
  <line class="cls-2" x1="71.83" y1="28.79" x2="90" y2="37.56"/>
  <line class="cls-2" x1="50.22" y1="30.13" x2="64.3" y2="36.92"/>
  <g>
    <line class="cls-2" x1="90" y1="58.92" x2="54.08" y2="41.59"/>
    <path class="cls-1" d="M56.25,37.63c-2.24-1.08-4.94-.14-6.02,2.1-1.08,2.24-.14,4.94,2.1,6.02,2.24,1.08,4.94.14,6.02-2.1,1.08-2.24.14-4.94-2.1-6.02Z"/>
  </g>
  <g>
    <line class="cls-2" x1="50.22" y1="50.79" x2="71.06" y2="60.85"/>
    <path class="cls-1" d="M68.89,64.81c2.24,1.08,4.94.14,6.02-2.1,1.08-2.24.14-4.94-2.1-6.02-2.24-1.08-4.94-.14-6.02,2.1-1.08,2.24-.14,4.94,2.1,6.02Z"/>
  </g>
  <polyline class="cls-2" points="50.22 61.02 75.01 72.63 83.42 66.82 90 69.99"/>
  <line class="cls-2" x1="81.58" y1="76.16" x2="89.81" y2="80.22"/>
  <polyline class="cls-2" points="37.14 81.91 35.9 24.42 17.77 33.17 18.35 90.97"/>
</svg>