<?xml version="1.0" encoding="UTF-8"?>
<svg id="Layer_1" data-name="Layer 1" xmlns="http://www.w3.org/2000/svg" viewBox="0 0 100 100">
  <defs>
    <style>
      .cls-1 {
        fill: #231f20;
      }

      .cls-2 {
        fill: none;
        stroke: #231f20;
        stroke-linecap: round;
        stroke-linejoin: round;
        stroke-width: 6px;
      }
    </style>
  </defs>
  <g>
    <polyline class="cls-2" points="90 24.2 50.22 5 10.13 24.42 10 95 50.22 75.53 84.21 91.93"/>
    <path class="cls-1" d="M80.96,97.88c3.37,1.62,7.41.21,9.04-3.15,1.62-3.37.21-7.41-3.15-9.04-3.37-1.62-7.41-.21-9.04,3.15s-.21,7.41,3.15,9.04Z"/>
  </g>
  <g>
    <polyline class="cls-2" points="50.22 18.36 63.25 24.65 71.83 40.56 84.21 46.53"/>
    <path class="cls-1" d="M80.96,52.48c3.37,1.62,7.41.21,9.04-3.15,1.62-3.37.21-7.41-3.15-9.04-3.37-1.62-7.41-.21-9.04,3.15s-.21,7.41,3.15,9.04Z"/>
  </g>
  <line class="cls-2" x1="71.83" y1="28.79" x2="90" y2="37.56"/>
  <line class="cls-2" x1="50.22" y1="30.13" x2="64.3" y2="36.92"/>
  <g>
    <line class="cls-2" x1="90" y1="58.92" x2="56.01" y2="42.52"/>
    <path class="cls-1" d="M59.26,36.57c-3.37-1.62-7.41-.21-9.04,3.15-1.62,3.37-.21,7.41,3.15,9.04,3.37,1.62,7.41.21,9.04-3.15,1.62-3.37.21-7.41-3.15-9.04Z"/>
  </g>
  <g>
    <line class="cls-2" x1="50.22" y1="50.79" x2="69.13" y2="59.92"/>
    <circle class="cls-1" cx="68.82" cy="59.77" r="6.77" transform="translate(-20.23 40.29) rotate(-28.63)"/>
  </g>
  <polyline class="cls-2" points="50.22 61.02 75.01 72.63 83.42 66.82 90 69.99"/>
  <line class="cls-2" x1="81.58" y1="76.16" x2="89.81" y2="80.22"/>
  <polyline class="cls-2" points="37.14 81.91 35.9 24.42 17.77 33.17 18.35 90.97"/>
</svg>