<?xml version="1.0" encoding="UTF-8"?>
<svg id="Layer_1" data-name="Layer 1" xmlns="http://www.w3.org/2000/svg" viewBox="0 0 100 100">
  <defs>
    <style>
      .cls-1 {
        fill: none;
        stroke: #231f20;
        stroke-linecap: round;
        stroke-linejoin: round;
        stroke-width: 2.5px;
      }
    </style>
  </defs>
  <path class="cls-1" d="M32,90.29l2.86-3.68h30.28l2.86,3.68h-36ZM59.12,78.08l2.74,3.53h-23.73l2.74-3.53h18.24ZM30.43,66.85c0-2.18,1.88-3.95,4.2-3.95s4.2,1.77,4.2,3.95-1.88,3.95-4.2,3.95-4.2-1.76-4.2-3.95M26.61,54.28l.51-19.27,20.5.48v18.78h-21.01ZM33.16,22.59h33.67c1.62,0,2.93,1.04,2.93,2.33s-1.31,2.33-2.93,2.33h-33.67c-1.62,0-2.93-1.04-2.93-2.33s1.31-2.33,2.93-2.33M72.87,35.02l.52,19.27h-21.01v-18.78l20.5-.48ZM65.37,70.8c-2.32,0-4.2-1.76-4.2-3.95s1.88-3.95,4.2-3.95,4.2,1.77,4.2,3.95-1.88,3.95-4.2,3.95M64.75,85.32h-29.5l2.37-3.05h24.75l2.37,3.05ZM66.85,78.08h5.37c3.42,0,6.2-2.61,6.2-5.83l-1.03-48.09c0-3.22-2.78-5.83-6.2-5.83h-18.49l-.67-.39,8.99-5.03-3.48-5.17h1.3l2.07-2.75h-21.79l2.07,2.75h1.64l-3.42,5.08,9.04,5.12-.67.39h-18.94c-3.42,0-6.2,2.61-6.2,5.83l-1.03,48.09c0,3.22,2.78,5.83,6.2,5.83h5.37l-13.15,16.92h7.73l2.5-3.21h39.54l2.5,3.21h7.73l-13.15-16.92Z"/>
</svg>