<?xml version="1.0" encoding="UTF-8"?>
<svg id="Layer_1" data-name="Layer 1" xmlns="http://www.w3.org/2000/svg" xmlns:xlink="http://www.w3.org/1999/xlink" viewBox="0 0 100 100">
  <defs>
    <style>
      .cls-1 {
        stroke-width: 6px;
      }

      .cls-1, .cls-2 {
        fill: none;
        stroke: #f60;
        stroke-linecap: round;
        stroke-miterlimit: 10;
      }

      .cls-2 {
        stroke-width: 3px;
      }

      .cls-3 {
        clip-path: url(#clippath);
      }
    </style>
    <clipPath id="clippath">
      <path class="cls-1" d="M62.69,7.22l-.28,28.66-3.07-1.32c-3.73-1.61-7.56,2.05-5.81,5.55l4.72,9.42-24.56-.48c-.99-.02-1.79-.78-1.78-1.69l.4-40.73c0-.92.82-1.64,1.82-1.62l26.79.52c.99.02,1.79.78,1.78,1.69Z"/>
    </clipPath>
  </defs>
  <g>
    <g>
      <path class="cls-1" d="M61.56,62.29l1.08-4.25-9.13-17.7c-1.13-2.18-.12-4.78,2.24-5.76h0c2.23-.93,4.87-.06,6.02,1.97l9.9,17.53,6.9,7.72c1.47,1.64,2.5,3.57,3.01,5.65l1.28,5.2c.19.79.46,1.55.8,2.29l3.05,6.61-17.77,7.58-3.16-3.76c-3.03-3.61-6.64-6.76-10.71-9.35l-8.69-5.53c-2.5-1.59-3.83-4.35-3.44-7.12l1.99-14.11,10.1.2.26,4.82"/>
      <path class="cls-1" d="M53.09,54.34s6.08.07,9.56,3.7"/>
      <path class="cls-1" d="M66.87,45.58s1.39.25,2.95-.13c2.22-.53,2.43-3.59.3-4.41l-7.42-2.85"/>
      <path class="cls-1" d="M70.11,45.37l7.15,4.58c1.26.81,1.45,2.47.39,3.48h0c-.63.6-1.56.82-2.43.58l-4.24-1.16"/>
      <path class="cls-1" d="M68.95,89.13l-1.26.52c-.71.3-1.03,1.13-.69,1.82l1.36,2.78c.31.63,1.06.92,1.71.65l21.6-8.95c.71-.3,1.03-1.13.69-1.82l-1.46-2.98c-.31-.64-1.07-.92-1.73-.64l-2.46,1.05"/>
    </g>
    <g>
      <g class="cls-3">
        <polygon class="cls-1" points="30.19 50.53 63.95 51.18 64.41 4.04 30.65 3.38 30.19 50.53"/>
      </g>
      <path class="cls-1" d="M62.69,7.22l-.28,28.66-3.07-1.32c-3.73-1.61-7.56,2.05-5.81,5.55l4.72,9.42-24.56-.48c-.99-.02-1.79-.78-1.78-1.69l.4-40.73c0-.92.82-1.64,1.82-1.62l26.79.52c.99.02,1.79.78,1.78,1.69Z"/>
    </g>
  </g>
  <path class="cls-1" d="M31.98,7.95h0c-.18-.64-.72-1.09-1.31-1.18-.2-.04-.4-.03-.61.01l-18.75,4.38-.97.24-1.76.41c-.8.19-1.25,1.02-1.02,1.84l3.03,10.97h-.05s7.2,26.02,7.2,26.02c.18.64.72,1.09,1.31,1.18.2.03.4.03.61-.02l12.06-2.81"/>
  <path class="cls-1" d="M73.98,47.85l2.6-6.4.03.04,10.18-25.14c.26-.61.1-1.28-.33-1.68-.13-.14-.3-.25-.5-.31l-18.91-7.05-1.69-.61c-.76-.29-1.64.13-1.97.94l-.72,1.77"/>
  <line class="cls-2" x1="37.97" y1="14.63" x2="58.55" y2="14.89"/>
  <line class="cls-2" x1="37.84" y1="23.55" x2="57.56" y2="23.8"/>
  <line class="cls-2" x1="36.84" y1="33.07" x2="46.37" y2="33.19"/>
  <line class="cls-2" x1="64.8" y1="13.54" x2="77.96" y2="19"/>
  <line class="cls-2" x1="64.09" y1="22.48" x2="76.7" y2="27.71"/>
  <line class="cls-2" x1="63.11" y1="31.02" x2="69.2" y2="33.54"/>
  <line class="cls-2" x1="14.34" y1="18.71" x2="28.96" y2="15.14"/>
  <line class="cls-2" x1="16.72" y1="27.35" x2="30.73" y2="23.92"/>
  <line class="cls-2" x1="18.64" y1="36.72" x2="25.41" y2="35.07"/>
</svg>