<?xml version="1.0" encoding="UTF-8"?>
<svg id="Layer_1" data-name="Layer 1" xmlns="http://www.w3.org/2000/svg" viewBox="0 0 100 100">
  <defs>
    <style>
      .cls-1 {
        fill: #231f20;
      }

      .cls-2 {
        fill: none;
        stroke: #231f20;
        stroke-linecap: round;
        stroke-linejoin: round;
        stroke-width: 6px;
      }
    </style>
  </defs>
  <rect class="cls-2" x="14.94" y="20" width="70.12" height="46.23" rx="2.21" ry="2.21"/>
  <path class="cls-2" d="M92.7,80H7.3c-1.96,0-3.02-2.11-1.76-3.49l9.1-9.96c.44-.48,1.08-.75,1.76-.75h67.18c.68,0,1.32.28,1.76.75l9.1,9.96c1.26,1.38.2,3.49-1.76,3.49Z"/>
  <g>
    <path class="cls-2" d="M32.57,39.53c3.63-5.37,10.06-8.94,17.43-8.94s13.8,3.57,17.43,8.94"/>
    <path class="cls-2" d="M39.98,45.1c2.08-3.09,5.78-5.14,10.02-5.14s7.94,2.05,10.02,5.14"/>
    <ellipse class="cls-1" cx="50.01" cy="52.43" rx="4.36" ry="4.02"/>
  </g>
</svg>