<?xml version="1.0" encoding="UTF-8"?>
<svg id="Layer_1" data-name="Layer 1" xmlns="http://www.w3.org/2000/svg" viewBox="0 0 100 100">
  <defs>
    <style>
      .cls-1 {
        fill: none;
        stroke: #231f20;
        stroke-linecap: round;
        stroke-linejoin: round;
        stroke-width: 4px;
      }
    </style>
  </defs>
  <path class="cls-1" d="M32.68,78.89v16.11h34.79v-16.11c0-1.29,1.04-2.34,2.32-2.34h12.13c5.84,0,10.58-4.79,10.58-10.71V6.48c0-.81-.65-1.48-1.46-1.48H8.96c-.81,0-1.46.67-1.46,1.48v59.36c0,5.91,4.74,10.71,10.6,10.71h12.27c1.28,0,2.32,1.05,2.32,2.34Z"/>
  <line class="cls-1" x1="7.5" y1="81.27" x2="32.68" y2="81.27"/>
  <line class="cls-1" x1="67.47" y1="81.27" x2="92.28" y2="81.27"/>
  <line class="cls-1" x1="7.5" y1="95" x2="32.68" y2="95"/>
  <line class="cls-1" x1="67.1" y1="95" x2="92.28" y2="95"/>
  <ellipse class="cls-1" cx="50.07" cy="23.81" rx="5.45" ry="5.51"/>
  <line class="cls-1" x1="50.07" y1="5" x2="50.07" y2="18.31"/>
  <line class="cls-1" x1="33.11" y1="66.15" x2="61.92" y2="66.15"/>
  <line class="cls-1" x1="47.54" y1="66.15" x2="47.54" y2="95"/>
  <path class="cls-1" d="M43.06,48.59l5.76,14.15c.37.91,1.25,1.51,2.23,1.51h10.09"/>
  <ellipse class="cls-1" cx="72.41" cy="42.86" rx="5.79" ry="5.85"/>
  <path class="cls-1" d="M77.64,46.98l1.22,1.2c.92.9,1.43,2.14,1.43,3.43v17.06c0,2.57-1.81,4.78-4.31,5.25l-9.39,1.77c-.78.15-1.4.76-1.56,1.54l-2.9,13.93c-.3,1.42-1.54,2.44-2.97,2.44h0c-1.9,0-3.33-1.74-2.99-3.62l2.77-15.27c.37-2.04,1.88-3.67,3.86-4.18l10.02-2.57"/>
  <path class="cls-1" d="M73.37,53.62l-2.52,6.96c-.55,1.53-1.99,2.55-3.61,2.55h-9.92c-1.41,0-2.55-1.15-2.55-2.58h0c0-1.42,1.14-2.58,2.55-2.58h6.57c1.16,0,2.19-.74,2.56-1.85l2.68-7.94"/>
</svg>