<svg id="ow" xmlns="http://www.w3.org/2000/svg" viewBox="0 0 1080 400"> <defs> <style> .cls-1 { fill: #fff; } .cls-2 { fill: #FF6600; } </style> </defs> <path class="cls-2" d="M321.05,200c0,63.81-51.72,115.52-115.52,115.52s-115.53-51.71-115.53-115.52,51.72-115.53,115.53-115.53,115.52,51.72,115.52,115.53Z"/> <polygon class="cls-1" points="207.5 195.58 232.27 240.03 263.79 240.03 207.5 139.14 149.17 240.03 181.8 240.03 207.5 195.58"/> <path class="cls-1" d="M428.25,179.59c8.25,0,15.73-1.65,22.23-4.9l.64-.32v-13.24l-1.69.86c-6.05,3.08-12.74,4.65-19.88,4.65-8.32,0-15.27-2.49-20.65-7.4-5.35-4.88-8.06-11.06-8.06-18.36.06-7.31,2.78-13.39,8.1-18.1,5.35-4.74,12.32-7.14,20.71-7.14,7.16,0,13.85,1.27,19.87,3.78l1.61.67v-13.43l-.73-.29c-6.05-2.45-13.5-3.69-22.14-3.69-12.23,0-22.42,3.54-30.27,10.52-7.89,7.01-11.89,16.32-11.89,27.66s4.01,20.81,11.93,27.97c7.88,7.13,18.05,10.75,30.23,10.75Z"/> <path class="cls-1" d="M507.71,102.69c-11.88,0-21.73,3.59-29.27,10.67-7.57,7.1-11.41,16.23-11.41,27.15s3.83,20.69,11.39,28.03c7.55,7.33,17.4,11.04,29.29,11.04s21.74-3.71,29.29-11.04c7.56-7.34,11.39-16.77,11.39-28.03s-3.84-20.04-11.4-27.15c-7.55-7.08-17.4-10.67-29.28-10.67ZM533.73,140.6c0,7.45-2.43,13.72-7.23,18.64-4.79,4.91-11.08,7.4-18.69,7.4s-13.91-2.49-18.69-7.4h0c-4.8-4.91-7.23-11.19-7.23-18.64s2.44-13.08,7.26-17.81c4.82-4.74,11.1-7.14,18.67-7.14s13.84,2.4,18.66,7.14c4.82,4.74,7.26,10.73,7.26,17.81Z"/> <path class="cls-1" d="M614.61,160.27l-25.49-56.32h-20.19v74.37h14.11v-55.11c.48,1.08,1.04,2.35,1.67,3.81l23.32,51.3h13.01l22.82-51.25c.19-.37.69-1.46,1.51-3.3.1-.21.19-.42.28-.63v55.17h14.29v-74.37h-20.38l-24.95,56.32Z"/> <path class="cls-1" d="M721.39,103.95h-34.56v74.37h14.66v-20.09h19.9c8.98,0,16.21-2.5,21.48-7.43,5.29-4.95,7.97-11.6,7.97-19.76s-2.68-14.8-7.98-19.72c-5.27-4.9-12.5-7.38-21.48-7.38ZM736.83,131.05c0,4.51-1.48,8.05-4.54,10.85-3.04,2.79-7.18,4.2-12.3,4.2h-18.5v-30.01h18.5c5.24,0,9.41,1.38,12.39,4.11,2.99,2.74,4.45,6.29,4.45,10.85Z"/> <path class="cls-1" d="M788.45,103.95l-33.52,74.37h15.64l6.22-14.41h40.68l6.22,14.41h16.38l-33.51-74.37h-18.11ZM812.02,151.15h-29.77l14.84-34.62,14.93,34.62Z"/> <path class="cls-1" d="M888.04,134.14l-6.59-1.26c-6.24-1.17-10.47-2.51-12.58-4-1.95-1.37-2.89-3.05-2.89-5.13,0-2.67,1.7-4.62,5.19-5.94,3.81-1.44,8.45-2.18,13.78-2.18,7.73,0,15.18,1.37,22.12,4.07l1.58.61v-13.34l-.79-.27c-7.82-2.67-15.53-4.03-22.92-4.03-9.56,0-17.57,1.81-23.82,5.38-6.45,3.69-9.72,9.27-9.72,16.59,0,5.16,1.95,9.75,5.81,13.65,3.81,3.85,10.11,6.55,18.71,8.03l7.14,1.26c5.55.99,9.48,2.3,11.67,3.89,2.05,1.49,3.05,3.35,3.05,5.68,0,2.85-1.64,5.06-5.02,6.75-3.6,1.8-8.32,2.71-14.04,2.71-9.54,0-18.24-2.1-25.88-6.25l-1.72-.93v13.85l.65.32c8.16,3.96,17.5,5.97,27.78,5.97,9.34,0,17.21-2.06,23.37-6.13,6.32-4.17,9.52-10.14,9.52-17.72,0-5.47-1.96-10.09-5.84-13.73-3.8-3.56-10.04-6.2-18.57-7.86Z"/> <path class="cls-1" d="M984.16,142c-3.79-3.56-10.04-6.2-18.57-7.86l-6.59-1.26c-6.24-1.17-10.47-2.51-12.58-4-1.95-1.37-2.89-3.05-2.89-5.13,0-2.67,1.7-4.62,5.19-5.94,3.81-1.44,8.45-2.18,13.78-2.18,7.73,0,15.18,1.37,22.12,4.07l1.58.61v-13.34l-.79-.27c-7.82-2.67-15.53-4.03-22.92-4.03-9.56,0-17.57,1.81-23.82,5.38-6.45,3.69-9.72,9.27-9.72,16.59,0,5.16,1.95,9.75,5.81,13.65,3.81,3.85,10.11,6.55,18.71,8.03l7.14,1.26c5.55.99,9.48,2.3,11.67,3.89,2.05,1.49,3.05,3.35,3.05,5.68,0,2.85-1.64,5.06-5.02,6.75-3.6,1.8-8.32,2.71-14.04,2.71-9.54,0-18.24-2.1-25.88-6.25l-1.72-.93v13.85l.65.32c8.16,3.96,17.5,5.97,27.78,5.97,9.34,0,17.21-2.06,23.37-6.13,6.32-4.18,9.52-10.14,9.52-17.72,0-5.47-1.96-10.09-5.84-13.73Z"/> <path class="cls-1" d="M426.86,220.41c-11.88,0-21.73,3.59-29.28,10.67-7.57,7.1-11.4,16.23-11.4,27.15s3.83,20.7,11.39,28.03c7.55,7.33,17.4,11.04,29.29,11.04s21.74-3.72,29.29-11.04c7.56-7.34,11.39-16.77,11.39-28.03s-3.84-20.04-11.41-27.15c-7.55-7.08-17.4-10.67-29.27-10.67ZM452.88,258.32c0,7.45-2.43,13.72-7.23,18.64-4.79,4.91-11.08,7.4-18.69,7.4s-13.91-2.49-18.69-7.39h0c-4.8-4.92-7.23-11.19-7.23-18.64s2.44-13.08,7.26-17.81c4.82-4.74,11.1-7.14,18.67-7.14s13.84,2.4,18.66,7.14c4.82,4.74,7.26,10.73,7.26,17.81Z"/> <polygon class="cls-1" points="488.08 296.05 502.74 296.05 502.74 270.83 541.61 270.83 541.61 258.33 502.74 258.33 502.74 234.53 545.32 234.53 545.32 221.68 488.08 221.68 488.08 296.05"/> <polygon class="cls-1" points="565.82 296.05 580.48 296.05 580.48 270.83 619.35 270.83 619.35 258.33 580.48 258.33 580.48 234.53 623.06 234.53 623.06 221.68 565.82 221.68 565.82 296.05"/> <rect class="cls-1" x="644.62" y="221.68" width="14.66" height="74.37"/> <path class="cls-1" d="M720.83,220.41c-12.23,0-22.42,3.54-30.27,10.52-7.89,7.01-11.89,16.32-11.89,27.66s4.01,20.81,11.93,27.97c7.88,7.13,18.06,10.75,30.23,10.75,8.25,0,15.73-1.65,22.23-4.9l.64-.32v-13.24l-1.69.86c-6.05,3.08-12.74,4.65-19.88,4.65-8.32,0-15.27-2.49-20.65-7.4-5.35-4.88-8.06-11.06-8.06-18.36.06-7.31,2.78-13.39,8.1-18.1,5.35-4.74,12.32-7.14,20.71-7.14,7.17,0,13.85,1.27,19.87,3.78l1.61.67v-13.43l-.73-.29c-6.05-2.45-13.5-3.69-22.14-3.69Z"/> <polygon class="cls-1" points="782.9 264.53 825.1 264.53 825.1 252.48 782.9 252.48 782.9 234.08 826.96 234.08 826.96 221.68 768.24 221.68 768.24 296.05 827.89 296.05 827.89 283.64 782.9 283.64 782.9 264.53"/> <path class="cls-1" d="M888.03,251.87l-6.59-1.26c-6.24-1.17-10.47-2.51-12.58-4-1.95-1.37-2.89-3.05-2.89-5.13,0-2.67,1.7-4.62,5.19-5.94,3.81-1.44,8.44-2.18,13.78-2.18,7.73,0,15.18,1.37,22.12,4.06l1.58.61v-13.34l-.79-.27c-7.82-2.67-15.53-4.03-22.92-4.03-9.56,0-17.57,1.81-23.82,5.38-6.45,3.69-9.72,9.27-9.72,16.59,0,5.16,1.95,9.75,5.81,13.65,3.81,3.85,10.11,6.56,18.71,8.03l7.14,1.26c5.55.99,9.48,2.3,11.67,3.89,2.05,1.49,3.04,3.35,3.04,5.68,0,2.85-1.64,5.06-5.02,6.75-3.6,1.8-8.32,2.71-14.04,2.71-9.53,0-18.24-2.1-25.88-6.25l-1.72-.93v13.85l.65.32c8.16,3.96,17.5,5.97,27.78,5.97,9.34,0,17.2-2.06,23.37-6.13,6.32-4.18,9.52-10.14,9.52-17.72,0-5.47-1.97-10.09-5.84-13.73-3.8-3.56-10.04-6.2-18.57-7.86Z"/> </svg>