<svg id="Layer_1" xmlns="http://www.w3.org/2000/svg" version="1.1" viewBox="0 0 666.96 40.94"> <!-- Generator: Adobe Illustrator 30.5.1, SVG Export Plug-In . SVG Version: 2.1.4 Build 3) --> <defs> <style> .st0, .st1 { fill: none; } .st2 { fill: #fff; } .st1 { stroke: #fff; stroke-linecap: round; stroke-linejoin: round; } </style> </defs> <path class="st0" d="M260.32,7.94h-4.71v10.16h4.71c3.42.01,5.61-1.48,5.61-5.1s-2.28-5.06-5.61-5.06Z"/> <path class="st0" d="M552.03,4.77c-7.89,0-13.59,5.83-13.59,13.63s5.75,13.63,13.59,13.63,13.64-5.83,13.64-13.63-5.75-13.63-13.64-13.63Z"/> <path class="st0" d="M316.87,19.75l-2.13,4.96h8.27l-2.13-4.96c-.94-2.17-1.93-5.49-2.03-5.83-.05.14-1.04,3.56-1.98,5.83Z"/> <path class="st0" d="M454.22,4.77c-7.89,0-13.59,5.83-13.59,13.63s5.75,13.63,13.59,13.63,13.64-5.83,13.64-13.63-5.75-13.63-13.64-13.63Z"/> <path class="st0" d="M49.46,19.75l-2.13,4.96h8.27l-2.13-4.96c-.94-2.17-1.93-5.49-2.03-5.83-.05.14-1.04,3.56-1.98,5.83Z"/> <path class="st0" d="M131.74,7.95h-5.36v9.78h5.36c3.42,0,5.61-1.31,5.61-4.92s-2.28-4.86-5.61-4.86Z"/> <path class="st0" d="M190.68,19.75l-2.13,4.96h8.27l-2.13-4.96c-.94-2.17-1.93-5.49-2.03-5.83-.05.14-1.04,3.56-1.98,5.83Z"/> <path class="st0" d="M595.09,12.04c0-4.63-3.03-6.94-8.48-6.94h-6.35v13.82h6.35c5.51.01,8.48-2.25,8.48-6.88Z"/> <polygon class="st2" points="0 40.94 5.01 40.94 26.54 0 21.53 0 0 40.94"/> <path class="st2" d="M51.24,1.73l-14.81,33.04h6.7l1.88-4.43h13.09l1.88,4.43h7.29L51.84,1.73h-.6ZM55.6,24.71h-8.27l2.13-4.96c.94-2.27,1.93-5.69,1.98-5.83.1.34,1.09,3.66,2.03,5.83l2.13,4.96Z"/> <path class="st2" d="M98.42,22.69h8.13v5.3c-1.74.81-4.42,1.2-6.6,1.2-7.09,0-11.16-4.68-11.16-10.79s3.97-10.69,10.07-10.69c3.92,0,5.85,1.3,7.54,2.99l4.71-4.53c-2.78-3.09-6.74-4.53-12.25-4.53-10.17,0-17.21,7.08-17.21,16.76s7.29,16.81,18.3,16.81c6.15,0,11.02-2.26,12.95-3.8v-14.64h-14.48v5.92Z"/> <path class="st2" d="M144.49,12.81c0-7.66-5.66-10.79-12.55-10.79h-12.5v32.75h6.94v-11.37h4.41l6.85,11.37h7.94l-7.69-12.38c3.92-1.49,6.6-4.62,6.6-9.58ZM131.74,17.72h0s-5.36,0-5.36,0V7.95h5.36c3.33,0,5.61,1.25,5.61,4.86s-2.19,4.91-5.61,4.91Z"/> <polygon class="st2" points="157.58 21.23 171.12 21.23 171.12 15.45 157.58 15.45 157.58 7.94 172.96 7.94 172.96 2.02 150.64 2.02 150.64 34.76 173.65 34.76 173.65 28.84 157.58 28.84 157.58 21.23"/> <path class="st2" d="M192.46,1.73l-14.81,33.04h6.7l1.88-4.43h13.09l1.88,4.43h7.29L193.06,1.73h-.6ZM196.82,24.71h-8.27l2.13-4.96c.94-2.27,1.93-5.69,1.98-5.83.1.34,1.09,3.66,2.03,5.83l2.13,4.96Z"/> <polygon class="st2" points="206.4 7.95 216.02 7.95 216.03 7.95 216.03 34.77 222.97 34.77 222.97 7.94 232.59 7.94 232.59 2.02 206.4 2.02 206.4 7.95"/> <path class="st2" d="M260.51,2.02h-11.85v32.75h6.94v-10.74h4.91c6.85,0,12.55-3.37,12.55-11.03s-5.66-10.98-12.55-10.98ZM260.32,18.11h0s-4.71-.01-4.71-.01V7.94h4.71c3.33,0,5.61,1.44,5.61,5.06s-2.19,5.11-5.61,5.11Z"/> <polygon class="st2" points="285.41 2.02 278.47 2.02 278.47 34.77 300.69 34.77 300.69 28.85 285.41 28.85 285.41 2.02"/> <line class="st1" x1="318.65" y1="1.73" x2="318.67" y2="1.73"/> <path class="st2" d="M318.67,1.73l-14.83,33.04h6.7l1.88-4.43h13.09l1.88,4.43h7.29l-15.43-33.04h-.58ZM323.01,24.71h-8.27l2.13-4.96c.94-2.27,1.93-5.69,1.98-5.83.1.34,1.09,3.66,2.03,5.83l2.13,4.96Z"/> <polygon class="st2" points="335.12 18.4 335.12 18.39 335.12 18.38 335.12 18.4"/> <path class="st2" d="M352.48,29.18c-6.1,0-10.22-4.68-10.22-10.79s4.12-10.69,10.22-10.69c3.86,0,6.59,1.79,8.18,4.29l5.31-3.66c-3.02-4.57-7.39-6.69-13.49-6.69-9.67,0-17.35,7.08-17.36,16.75,0,9.67,7.69,16.8,17.36,16.8,6.5,0,11.16-2.79,14.09-7.22l-5.41-3.61c-1.88,2.8-4.32,4.82-8.68,4.82Z"/> <polygon class="st2" points="378.67 21.23 392.21 21.23 392.21 15.45 378.67 15.45 378.67 7.94 394.05 7.94 394.05 2.02 371.73 2.02 371.73 34.76 394.74 34.76 394.74 28.84 378.67 28.84 378.67 21.23"/> <polygon class="st2" points="410.26 5.1 420.62 5.1 420.62 34.77 424.19 34.77 424.19 5.1 434.56 5.1 434.56 2.02 410.26 2.02 410.26 5.1"/> <path class="st2" d="M454.21,1.64c-9.57,0-17.31,6.89-17.31,16.76s7.69,16.76,17.31,16.76,17.36-6.89,17.36-16.76-7.79-16.76-17.36-16.76ZM454.22,32.03c-7.84,0-13.59-5.83-13.59-13.63s5.7-13.63,13.59-13.63,13.64,5.83,13.64,13.63-5.8,13.63-13.64,13.63Z"/> <path class="st2" d="M520.88,23.84c-.44,1.34-.89,3.37-.94,3.56-.05-.19-.59-2.21-1.09-3.56l-8.78-22.15h-.6l-8.78,22.15c-.54,1.34-1.04,3.37-1.09,3.56-.05-.19-.54-2.16-.94-3.56l-7.09-21.82h-3.84l11.16,33.09h.6l9.23-23.31c.49-1.25.99-3.04,1.04-3.18.05.15.44,1.93.99,3.18l9.08,23.31h.6l11.11-33.09h-3.62l-7.04,21.82Z"/> <path class="st2" d="M552.03,1.64c-9.57,0-17.31,6.89-17.31,16.76s7.69,16.76,17.31,16.76,17.36-6.89,17.36-16.76-7.79-16.76-17.36-16.76ZM552.03,32.03c-7.84,0-13.59-5.83-13.59-13.63s5.7-13.63,13.59-13.63,13.64,5.83,13.64,13.63-5.8,13.63-13.64,13.63Z"/> <path class="st2" d="M598.81,12.04c0-6.79-4.96-10.02-12-10.02h-10.13v32.76h3.57v-12.86h6.15c.55,0,1.09,0,1.59-.05l7.74,12.91h4.22l-8.23-13.49c4.36-1.3,7.09-4.43,7.09-9.25ZM586.61,18.93h0s-6.35-.01-6.35-.01V5.1h6.35c5.45,0,8.48,2.31,8.48,6.94s-2.97,6.89-8.48,6.89Z"/> <line class="st1" x1="606.8" y1="2.02" x2="606.79" y2="2.02"/> <path class="st2" d="M629.41,2.02h-4.07l-12.9,15.27c-.64.82-1.64,2.36-2.33,3.71.1-1.01.25-2.8.25-4.29V2.02h-3.56v32.74h3.57v-10.4l4.46-5.15,11.61,15.56h4.36l-13.64-18.11,12.25-14.64Z"/> <polygon class="st2" points="661.95 0 640.42 40.94 645.43 40.94 666.96 0 661.95 0"/> </svg>