<?xml version="1.0" encoding="UTF-8"?>
<svg id="Layer_1" data-name="Layer 1" xmlns="http://www.w3.org/2000/svg" viewBox="0 0 514 348.82">
  <defs>
    <style>
      .cls-1 {
        fill: #282827;
      }
    </style>
  </defs>
  <path class="cls-1" d="M514,57.5v203c0,6.35-5.15,11.5-11.5,11.5h-22c-6.35,0-11.5,5.15-11.5,11.5v53.82c0,6.35-5.15,11.5-11.5,11.5H34.5c-6.35,0-11.5-5.15-11.5-11.5v-91.82c0-6.35-5.15-11.5-11.5-11.5h0c-6.35,0-11.5-5.15-11.5-11.5V11.5C0,5.15,5.15,0,11.5,0h416c6.35,0,11.5,5.15,11.5,11.5v23c0,6.35,5.15,11.5,11.5,11.5h52c6.35,0,11.5,5.15,11.5,11.5Z"/>
</svg>