<?xml version="1.0" encoding="utf-8"?>
<!-- Generator: Adobe Illustrator 29.8.1, SVG Export Plug-In . SVG Version: 9.03 Build 0)  -->
<svg version="1.0" id="Layer_1" xmlns="http://www.w3.org/2000/svg" xmlns:xlink="http://www.w3.org/1999/xlink" x="0px" y="0px"
	 viewBox="0 0 200 200" style="enable-background:new 0 0 200 200;" xml:space="preserve">
<style type="text/css">
	.st0{fill:#FFFFFF;}
</style>
<g>
	<g transform="translate(0.000000,200.000000) scale(0.026882,-0.026882)">
		<path class="st0" d="M720,5880v-840h840h840v840v840h-840H720V5880z M2160,5880v-600h-600H960v600v600h600h600V5880z"/>
		<path class="st0" d="M1200,5880v-360h360h360v360v360h-360h-360V5880z"/>
		<path class="st0" d="M2640,6600v-120h120h120v-480v-480h120h120v480v480h120h120v120v120h-360h-360V6600z"/>
		<path class="st0" d="M4080,6600v-120h120h120v120v120h-120h-120V6600z"/>
		<path class="st0" d="M4560,6480v-240h-480h-480v-120v-120h-120h-120v-120v-120h360h360v-120v-120h-360h-360v-120v-120h-120h-120
			v-240v-240h240h240v-120v-120h-120h-120v-240v-240h360h360v-120v-120h240h240v-120v-120h-240h-240v-120v-120h-120h-120v-120v-120
			h240h240v-240v-240h-120h-120v120v120h-240h-240v120v120h-240h-240v120v120h-120h-120v120v120h240h240v-120v-120h120h120v120v120
			h120h120v120v120h-600h-600v-120v-120h-120h-120v120v120h-600h-600v-120v-120h240h240v-120v-120h120h120v120v120h240h240v-120
			v-120h-120h-120v-120v-120h-120h-120v-120v-120h-240h-240v240v240h-240H960v240v240H840H720v-600v-600h120h120v240v240h120h120
			v-120v-120h120h120v-120v-120h240h240v120v120h120h120v-120v-120h240h240v-120v-120h120h120v-120v-120h120h120v-120v-120h480h480
			v-480V960h240h240V840V720h120h120v120v120h120h120v240v240h120h120v120v120h240h240v600v600h120h120v-240v-240h240h240v-360v-360
			h120h120v360v360h-120h-120v240v240h120h120v240v240h-120h-120v120v120h120h120v360v360h-120h-120v120v120h120h120v120v120h-120
			h-120v-120v-120h-600h-600v120v120h-120h-120v-120v-120h120h120v-120v-120h120h120v-120v-120h-240h-240v120v120h-120h-120v-120
			v-120h120h120v-240v-240h240h240v-240v-240h-120h-120v-120v-120h-240h-240v120v120h120h120v120v120h-240h-240v120v120h120h120v120
			v120h-120h-120v360v360h120h120v360v360h-120h-120v-240v-240h-240h-240v120v120h120h120v120v120h-120h-120v120v120h120h120v120
			v120h-120h-120v120v120h240h240v-240v-240h120h120v240v240h-120h-120v120v120h120h120v240v240h-120h-120V6480z M3600,5160v-120
			h120h120v120v120h120h120v-120v-120h-120h-120v-120v-120h120h120v-120v-120h-120h-120v-120v-120h-120h-120v120v120h120h120v120
			v120h-120h-120v120v120h-120h-120v120v120h120h120V5160z M4320,4200v-120h-120h-120v120v120h120h120V4200z M6480,4200v-120h-240
			h-240v120v120h240h240V4200z M6480,3720v-120h-120h-120v-120v-120h-240h-240v120v120h-120h-120v120v120h480h480V3720z M2640,3240
			v-120h120h120v-120v-120h120h120v-240v-240h120h120v240v240h120h120v-120v-120h240h240v-120v-120h-120h-120v-120v-120h-120h-120
			v120v120h-120h-120v-120v-120h-120h-120v120v120h-120h-120v240v240h-120h-120v120v120h-120h-120v-120v-120h-120h-120v120v120h120
			h120v120v120h120h120V3240z M5760,3000v-120h-120h-120v120v120h120h120V3000z M6480,3000v-120h-120h-120v120v120h120h120V3000z
			 M5520,2280v-360h-360h-360v360v360h360h360V2280z M4560,2280v-120h-120h-120v120v120h120h120V2280z M4560,1560v-120h120h120v-240
			V960h-120h-120v120v120h-120h-120v240v240h120h120V1560z"/>
		<path class="st0" d="M5040,2280v-120h120h120v120v120h-120h-120V2280z"/>
		<path class="st0" d="M5040,5880v-840h840h840v840v840h-840h-840V5880z M6480,5880v-600h-600h-600v600v600h600h600V5880z"/>
		<path class="st0" d="M5520,5880v-360h360h360v360v360h-360h-360V5880z"/>
		<path class="st0" d="M2640,5040v-240h120h120v240v240h-120h-120V5040z"/>
		<path class="st0" d="M720,4560v-240h120h120v-120v-120h120h120v120v120h120h120v-120v-120h480h480v120v120h-240h-240v240v240h-240
			h-240v-120v-120h-120h-120v120v120H960H720V4560z M1200,4440v-120h-120H960v120v120h120h120V4440z"/>
		<path class="st0" d="M2160,4680v-120h120h120v120v120h-120h-120V4680z"/>
		<path class="st0" d="M720,1560V720h840h840v840v840h-840H720V1560z M2160,1560V960h-600H960v600v600h600h600V1560z"/>
		<path class="st0" d="M1200,1560v-360h360h360v360v360h-360h-360V1560z"/>
		<path class="st0" d="M2640,1680v-240h120h120v-120v-120h-120h-120V960V720h120h120v120v120h120h120v240v240h120h120v-120v-120h120
			h120v-120V960h-120h-120V840V720h120h120v120v120h120h120v120v120h-120h-120v240v240h-240h-240v-120v-120h-120h-120v240v240h-120
			h-120V1680z"/>
		<path class="st0" d="M5520,1320v-120h-120h-120v-120V960h240h240V840V720h120h120v120v120h240h240V840V720h120h120v360v360h-600
			h-600V1320z M6000,1080V960h-120h-120v120v120h120h120V1080z"/>
	</g>
</g>
</svg>
