<?xml version="1.0" encoding="iso-8859-1"?>
<!-- Uploaded to: SVG Repo, www.svgrepo.com, Generator: SVG Repo Mixer Tools -->
<svg fill="#000000" height="800px" width="800px" version="1.1" id="Layer_1" xmlns="http://www.w3.org/2000/svg" xmlns:xlink="http://www.w3.org/1999/xlink" 
	 viewBox="0 0 511.999 511.999" xml:space="preserve">
<g>
	<g>
		<path d="M495.589,416.357L382.252,303.019c16.718-29.975,25.617-63.868,25.617-99.132c0-54.486-21.218-105.711-59.745-144.237
			c-79.533-79.533-208.942-79.533-288.474,0s-79.533,208.942,0,288.474c39.766,39.766,92.002,59.649,144.237,59.649
			c34.196,0,68.391-8.524,99.088-25.566L416.357,495.59c10.582,10.581,24.652,16.409,39.616,16.409
			c14.965,0,29.035-5.828,39.616-16.409c10.582-10.582,16.41-24.651,16.41-39.617S506.172,426.938,495.589,416.357z M83.642,324.131
			c-66.303-66.303-66.303-174.186,0-240.489c33.152-33.151,76.698-49.726,120.244-49.726s87.094,16.575,120.244,49.726
			c32.118,32.118,49.807,74.823,49.807,120.244s-17.688,88.126-49.807,120.244C257.828,390.433,149.946,390.434,83.642,324.131z
			 M471.596,471.596c-4.172,4.172-9.722,6.472-15.623,6.472s-11.45-2.298-15.623-6.472L331.653,362.898
			c5.689-4.578,11.194-9.496,16.473-14.775c5.257-5.257,10.179-10.758,14.783-16.465l108.69,108.691
			c4.172,4.172,6.472,9.721,6.472,15.623C478.069,461.874,475.77,467.424,471.596,471.596z"/>
	</g>
</g>
<g>
	<g>
		<path d="M307.194,100.581c-56.963-56.963-149.65-56.963-206.613,0s-56.963,149.649,0,206.612
			c28.482,28.482,65.893,42.723,103.306,42.723s74.825-14.241,103.306-42.723C364.156,250.23,364.156,157.543,307.194,100.581z
			 M302.648,257.04h-34.173c-9.37,0-16.966,7.596-16.966,16.966v31.434c-9.803,4.585-20.136,7.667-30.656,9.264v-11.625
			c0-9.37-7.596-16.966-16.966-16.966s-16.966,7.596-16.966,16.966v11.625c-9.358-1.421-18.562-4.038-27.383-7.822v-32.875
			c0-9.37-7.596-16.966-16.966-16.966h-37.448c-7.713-14.348-12.07-30.027-13.091-45.89c0.06,0.001,0.119,0.009,0.179,0.009h33.392
			v12.806c0,9.37,7.596,16.966,16.966,16.966h44.348v8.613c0,9.37,7.596,16.966,16.966,16.966c9.37,0,16.966-7.596,16.966-16.966
			v-25.578c0-9.37-7.596-16.966-16.966-16.966h-44.348v-12.806c0-9.37-7.596-16.966-16.966-16.966H94.964
			c1.404-5.777,3.296-11.456,5.628-16.993h40.869c9.37,0,16.966-7.596,16.966-16.966V108.68c0-2.383-0.495-4.647-1.382-6.705
			c14.823-6.795,30.831-10.202,46.842-10.202c0.012,0,0.025,0.001,0.037,0.001v28.452h-0.037c-9.37,0-16.966,7.596-16.966,16.966
			s7.596,16.966,16.966,16.966h17.003c9.37,0,16.966-7.596,16.966-16.966V97.035c4.255,1.345,8.448,2.934,12.548,4.798v41.436
			c0,8.824,6.74,16.071,15.352,16.884v18.73c0,9.37,7.596,16.966,16.966,16.966c9.37,0,16.966-7.596,16.966-16.966v-18.649h7.497
			c5.995,14.236,8.93,29.459,8.794,44.668h-56.114c-9.37,0-16.966,7.596-16.966,16.966v9.579c0,9.37,7.596,16.966,16.966,16.966
			c6.722,0,12.531-3.91,15.277-9.579h35.285C308.389,245.074,305.804,251.169,302.648,257.04z"/>
	</g>
</g>
<g>
	<g>
		<path d="M203.887,161.917h-14.666c-9.37,0-16.966,7.596-16.966,16.966c0,9.37,7.596,16.966,16.966,16.966h14.666
			c9.37,0,16.966-7.596,16.966-16.966C220.852,169.513,213.256,161.917,203.887,161.917z"/>
	</g>
</g>
</svg>